<svg xmlns="http://www.w3.org/2000/svg" width="104" height="104" viewBox="0 0 104 104"><defs><style>.a{fill:#fed2ff;}.b{fill:#b98eff;}.c{fill:#ff9bff;}.d{fill:#9448f5;}.e{fill:#6d00ca;}.f{fill:#e207b9;}.g{fill:#ffd600;}.h{fill:#ff63ed;}.i{fill:#f95116;}</style></defs><circle class="a" cx="52" cy="52" r="52"/><g transform="translate(15.208 9.144)"><path class="b" d="M-2.621,28.563V61.736A7.562,7.562,0,0,1-10.187,69.3H-19.04a7.693,7.693,0,0,0,7.693-7.689V53.676a17.812,17.812,0,0,0-17.81-17.81h-6.094a17.708,17.708,0,0,0-9.841,2.967V28.563A21.236,21.236,0,0,1-23.857,7.328,21.238,21.238,0,0,1-2.621,28.563Z" transform="translate(54.191 5.487)"/><g transform="translate(59.449 26.617)"><path class="c" d="M-29.6,11.575a21.188,21.188,0,0,1,1.339,7.433v.926A11.677,11.677,0,0,1-20.7,30.851a11.677,11.677,0,0,1-7.566,10.917v8.122A19.507,19.507,0,0,0-12.882,30.851,19.5,19.5,0,0,0-29.6,11.575Z" transform="translate(29.6 -11.575)"/></g><path class="d" d="M-8.105,28.563V61.736A7.562,7.562,0,0,1-15.671,69.3h-9.217a7.562,7.562,0,0,0,7.566-7.563V28.563A21.238,21.238,0,0,0-38.558,7.328h9.217A21.238,21.238,0,0,1-8.105,28.563Z" transform="translate(68.893 5.487)"/><path class="c" d="M-34.355,15.423v-.429a5.016,5.016,0,0,1,5.011-5.011,5.015,5.015,0,0,1,5.008,5.011v.429a21.119,21.119,0,0,1,6.25,1.06V14.994A11.259,11.259,0,0,0-29.344,3.733,11.26,11.26,0,0,0-40.6,14.994v1.489A21.137,21.137,0,0,1-34.355,15.423Z" transform="translate(64.287 -2.6)"/><g transform="translate(19.873 27.774)"><g transform="translate(17.259 0)"><circle class="e" cx="1.831" cy="1.831" r="1.831"/></g><g transform="translate(5.451 5.635)"><path class="e" d="M-31.215,15.927h-7.751A1.133,1.133,0,0,1-40.1,14.8a1.133,1.133,0,0,1,1.134-1.131h7.751A1.133,1.133,0,0,1-30.08,14.8,1.133,1.133,0,0,1-31.215,15.927Z" transform="translate(40.1 -13.665)"/></g><circle class="e" cx="1.831" cy="1.831" r="1.831"/></g><g transform="translate(58.606 25.485)"><path class="f" d="M-27.677,51.8c-.523,0-.634-.37-.748-.9-.13-.611-.1-1.206.51-1.336a18.433,18.433,0,0,0,10.341-6.338,18.348,18.348,0,0,0,4.14-11.593,18.321,18.321,0,0,0-4.537-12.064A18.351,18.351,0,0,0-29.175,13.48c-.621-.088-.748-.663-.66-1.281s.361-1.05.978-.962a20.608,20.608,0,0,1,12.591,6.841,20.573,20.573,0,0,1,5.1,13.556,20.621,20.621,0,0,1-4.654,13.029A20.687,20.687,0,0,1-27.44,51.778,1,1,0,0,1-27.677,51.8Z" transform="translate(29.86 -11.226)"/><g transform="translate(1.256 8.359)"><path class="f" d="M-28.546,37.9c-.458,0-.634-.279-.8-.731-.221-.588-.182-1.238.4-1.459a10.587,10.587,0,0,0,6.835-9.857,10.587,10.587,0,0,0-6.835-9.857c-.585-.221-.435-.874-.215-1.459s.429-.881,1.014-.66a12.868,12.868,0,0,1,8.3,11.976,12.868,12.868,0,0,1-8.3,11.976,1.154,1.154,0,0,1-.4.071Z" transform="translate(29.473 -13.798)"/></g></g><g transform="translate(22.551)"><path class="f" d="M-39.822,17.877c-.624,0-1.131.013-1.131-.611V15.777A12.4,12.4,0,0,1-28.561,3.385,12.406,12.406,0,0,1-16.169,15.777v1.489c0,.624-.507.257-1.134.257s-1.131.367-1.131-.257V15.777A10.137,10.137,0,0,0-28.561,5.65a10.138,10.138,0,0,0-10.13,10.127v1.489C-38.691,17.89-39.2,17.877-39.822,17.877Z" transform="translate(40.953 -3.385)"/></g><g transform="translate(28.801 6.25)"><path class="f" d="M-27.879,12.409c-.624,0-1.131.094-1.131-.53v-.429A3.884,3.884,0,0,0-32.887,7.57a3.886,3.886,0,0,0-3.881,3.881v.429c0,.624-.507.215-1.131.215s-1.131.41-1.131-.215v-.429a6.148,6.148,0,0,1,6.143-6.143,6.15,6.15,0,0,1,6.142,6.143v.429C-26.745,12.5-27.252,12.409-27.879,12.409Z" transform="translate(39.03 -5.308)"/></g><path class="e" d="M-13.854,6.98h-9.217a22.394,22.394,0,0,0-22.37,22.367v10.27c0,.624.507.618,1.134.618A1.132,1.132,0,0,0-43.176,39.1V29.347a20.124,20.124,0,0,1,20.1-20.1,20.124,20.124,0,0,1,20.1,20.1V62.519A6.438,6.438,0,0,1-9.4,68.951h-7.254c-.624,0-2.3.507-2.3,1.131s.075,1.134.7,1.134H-.185a8.707,8.707,0,0,0,8.7-8.7V29.347A22.391,22.391,0,0,0-13.854,6.98ZM6.25,62.519A6.441,6.441,0,0,1-.185,68.951H-3.552A8.71,8.71,0,0,0-.7,62.519V29.347A22.4,22.4,0,0,0-13.25,9.252,20.131,20.131,0,0,1,6.25,29.347V62.519Z" transform="translate(53.406 4.702)"/><path class="c" d="M-11.924,33.919v7.933a7.692,7.692,0,0,1-7.689,7.689H-39.851a7.693,7.693,0,0,1-7.693-7.689V33.919a17.812,17.812,0,0,1,17.81-17.81,17.81,17.81,0,0,1,17.81,17.81Z" transform="translate(48.675 25.244)"/><path class="g" d="M-34.174,18.032a11.657,11.657,0,0,0-11.446,11.71V35.8a3.162,3.162,0,0,0,3.165,3.162h16.793A3.164,3.164,0,0,0-22.5,35.8V29.593A11.572,11.572,0,0,0-34.174,18.032Z" transform="translate(53.002 29.569)"/><path class="h" d="M-18.16,33.919v7.933a7.693,7.693,0,0,1-7.693,7.689h-6.09a7.692,7.692,0,0,0,7.689-7.689V33.919a17.81,17.81,0,0,0-17.81-17.81h6.094A17.812,17.812,0,0,1-18.16,33.919Z" transform="translate(61.005 25.244)"/><g transform="translate(6.25 46.472)"><path class="i" d="M-33.4,17.684h.127A12.61,12.61,0,0,1-24.35,21.36a12.605,12.605,0,0,1,3.767,9.015v6.211a4.3,4.3,0,0,1-4.3,4.3H-41.672a4.3,4.3,0,0,1-4.3-4.3V30.525A12.807,12.807,0,0,1-33.4,17.684m.02,2.265A10.536,10.536,0,0,0-43.707,30.525v6.061a2.035,2.035,0,0,0,2.035,2.031H-24.88a2.032,2.032,0,0,0,2.031-2.031V30.375a10.356,10.356,0,0,0-3.094-7.407,10.336,10.336,0,0,0-7.439-3.019Z" transform="translate(45.969 -17.684)"/></g><path class="f" d="M-22.857,15.761h-6.094A18.961,18.961,0,0,0-47.892,34.7v7.933a8.834,8.834,0,0,0,8.824,8.824H-12.74a8.832,8.832,0,0,0,8.824-8.824V34.7A18.961,18.961,0,0,0-22.857,15.761ZM-45.627,42.635V34.7A16.7,16.7,0,0,1-28.951,18.026,16.692,16.692,0,0,1-12.272,34.7v7.933a6.565,6.565,0,0,1-6.559,6.559H-39.068A6.565,6.565,0,0,1-45.627,42.635Zm39.449,0a6.567,6.567,0,0,1-6.559,6.559h-.2a8.831,8.831,0,0,0,2.928-6.559V34.7a18.984,18.984,0,0,0-9.3-16.3A16.708,16.708,0,0,1-6.178,34.7Z" transform="translate(47.892 24.46)"/></g></svg>