<svg xmlns="http://www.w3.org/2000/svg" width="32" height="32" viewBox="0 0 32 32"><defs><style>.a{fill:#4267b2;}.b{fill:#fff;}</style></defs><path class="a" d="M30.234,0H1.765A1.766,1.766,0,0,0,0,1.766V30.235A1.766,1.766,0,0,0,1.766,32H30.234A1.766,1.766,0,0,0,32,30.234h0V1.765A1.766,1.766,0,0,0,30.234,0Z"/><path class="b" d="M216.156,104.491V92.116h4.172l.625-4.844h-4.8V84.188c0-1.4.388-2.353,2.395-2.353h2.543V77.514a34.188,34.188,0,0,0-3.726-.19c-3.687,0-6.211,2.25-6.211,6.384v3.565H207v4.844h4.156v12.375Z" transform="translate(-194.063 -72.491)"/></svg>