<svg xmlns="http://www.w3.org/2000/svg" width="32" height="32" viewBox="0 0 32 32"><defs><style>.a{fill:#fae300;}.b{fill:#391b1b;}</style></defs><g transform="translate(0.376 0.2)"><rect class="a" width="32" height="32" rx="1.5" transform="translate(-0.376 -0.2)"/><path class="b" d="M67.452,77.391c-6.823,0-12.354,4.372-12.354,9.766,0,3.511,2.343,6.587,5.861,8.309-.258.965-.936,3.5-1.072,4.036-.167.672.247.663.517.482.212-.141,3.385-2.3,4.754-3.229a15.644,15.644,0,0,0,2.293.169c6.823,0,12.354-4.373,12.354-9.766s-5.531-9.766-12.354-9.766" transform="translate(-51.924 -72.625)"/><g transform="translate(6.329 11.569)"><path class="a" d="M108.627,185.048h-3.613a.614.614,0,1,0,0,1.229h1.174V190.6a.6.6,0,0,0,.6.6h.131a.6.6,0,0,0,.6-.6v-4.328h1.109a.614.614,0,1,0,0-1.229Z" transform="translate(-104.4 -184.961)"/><path class="a" d="M262.046,188.781h-1.68v-4.42a.666.666,0,1,0-1.333,0v4.764a.647.647,0,0,0,.01.107.569.569,0,0,0-.01.106.557.557,0,0,0,.558.558h2.455a.558.558,0,0,0,0-1.116Z" transform="translate(-249.137 -183.694)"/><path class="a" d="M325.088,188.984l-1.872-2.459,1.691-1.692a.587.587,0,1,0-.83-.83l-2.094,2.094v-1.736a.667.667,0,1,0-1.333,0v4.911a.667.667,0,1,0,1.333,0v-1.515l.381-.38,1.771,2.324a.6.6,0,1,0,.953-.716Z" transform="translate(-306.81 -183.694)"/><path class="a" d="M172.787,189.143l-1.8-4.925-.006-.005a.885.885,0,0,0-.844-.519.859.859,0,0,0-.875.62.82.82,0,0,0-.034.081l-1.77,4.748a.6.6,0,1,0,1.127.4l.306-.874h2.464l.306.874a.6.6,0,1,0,1.127-.4Zm-3.506-1.595.828-2.363.027,0,.827,2.36Z" transform="translate(-163.39 -183.694)"/></g></g></svg>