<svg xmlns="http://www.w3.org/2000/svg" width="172.524" height="26.14" viewBox="0 0 172.524 26.14"><defs><style>.a{fill:#fff;}.b{fill:#ef0050;}</style></defs><path class="a" d="M264.867,11.749h6.081v8.21h7.8v-8.21h6.078V33.682h-6.078V25.349h-7.8v8.334h-6.081Z" transform="translate(-173.488 -7.981)"/><path class="a" d="M331.721,21.8v-.061c0-6.218,5.078-11.261,11.844-11.261s11.783,4.979,11.783,11.2v.063C355.348,27.958,350.272,33,343.5,33S331.721,28.022,331.721,21.8Zm17.422,0v-.061A5.659,5.659,0,0,0,343.5,15.9a5.548,5.548,0,0,0-5.546,5.784v.063a5.654,5.654,0,0,0,5.608,5.847A5.558,5.558,0,0,0,349.143,21.8Z" transform="translate(-217.28 -6.861)"/><path class="a" d="M401.392,11.632h6.422l3.823,12.691,4.231-12.753H421.1l4.231,12.753,3.823-12.691h6.3l-7.333,22.092h-5.3l-4.417-12.629-4.387,12.629h-5.3Z" transform="translate(-262.928 -7.863)"/><path class="a" d="M0,0H5.953V14.548l4.606-5.609H17.3l-5.89,6.725L17.453,25.7H10.9L7.489,20,5.953,21.767V25.7H0Z"/><g transform="translate(18.893 8.374)"><path class="b" d="M54.7,25.458h5.953V27.84a6.291,6.291,0,0,1,5.076-2.758c3.6,0,5.765,2.382,5.765,6.236V42.41H65.54V33.23c0-1.849-.972-2.852-2.382-2.852-1.441,0-2.507,1-2.507,2.852v9.18H54.7Z" transform="translate(-54.698 -25.082)"/><path class="b" d="M110.21,34.012V33.95c0-4.825,3.948-8.868,9.4-8.868,5.421,0,9.337,3.981,9.337,8.806v.062c0,4.825-3.948,8.868-9.4,8.868C114.127,42.819,110.21,38.837,110.21,34.012Zm12.941,0V33.95a3.675,3.675,0,0,0-3.6-3.823,3.55,3.55,0,0,0-3.54,3.76v.062a3.675,3.675,0,0,0,3.6,3.823A3.551,3.551,0,0,0,123.151,34.012Z" transform="translate(-91.036 -25.082)"/><path class="b" d="M180.352,26.171v4.8H176.4V36.7c0,1.191.532,1.691,1.629,1.691a5.194,5.194,0,0,0,2.256-.564V42.5a8.475,8.475,0,0,1-4.136.971c-3.572,0-5.7-1.565-5.7-5.608V30.967h-2.005v-4.8Z" transform="translate(-129.156 -25.795)"/><path class="b" d="M207,34.012V33.95c0-4.952,3.54-8.868,8.554-8.868,5.86,0,8.555,4.293,8.555,9.277,0,.374,0,.814-.032,1.221H212.734a3.5,3.5,0,0,0,3.667,2.79,5.122,5.122,0,0,0,3.76-1.723l3.29,2.726a8.88,8.88,0,0,1-7.363,3.446C210.761,42.819,207,39.278,207,34.012Zm11.531-1.471c-.219-1.881-1.316-3.072-2.945-3.072-1.567,0-2.633,1.223-2.946,3.072Z" transform="translate(-154.394 -25.082)"/></g><g transform="translate(22.046 0.353)"><path class="b" d="M75.522,8.432H72.21l.427-.851a5.149,5.149,0,0,0,.482-2.258,4.344,4.344,0,0,0-.84-2.813l-.369-.4.369-.4a1.95,1.95,0,0,1,1.427-.691c1.446,0,2.577,1.891,2.577,4.3a6.365,6.365,0,0,1-.6,2.783Zm-1.5-1.175h.755a5.474,5.474,0,0,0,.333-1.934c0-1.957-.909-3.357-1.578-3.093a6.059,6.059,0,0,1,.764,3.093A6.8,6.8,0,0,1,74.021,7.258Z" transform="translate(-69.117 -1.021)"/><path class="b" d="M67,4.986H63.825l.092-.668c.271-1.971,1.278-3.3,2.506-3.3a1.95,1.95,0,0,1,1.427.691l.369.4-.372.4a3.716,3.716,0,0,0-.775,1.969ZM65.216,3.811H66a5.1,5.1,0,0,1,.6-1.583C66.1,2.053,65.525,2.648,65.216,3.811Z" transform="translate(-63.825 -1.021)"/><g transform="translate(18.127)"><path class="b" d="M128,8.432h-3.307l.424-.849a5.176,5.176,0,0,0,.48-2.26,4.344,4.344,0,0,0-.84-2.813l-.369-.4.369-.4a1.95,1.95,0,0,1,1.427-.691c1.446,0,2.577,1.891,2.577,4.3a6.365,6.365,0,0,1-.6,2.783Zm-1.5-1.175h.755a5.474,5.474,0,0,0,.333-1.934c0-1.957-.913-3.357-1.579-3.093a6.059,6.059,0,0,1,.764,3.093A6.809,6.809,0,0,1,126.5,7.258Z" transform="translate(-121.596 -1.021)"/><path class="b" d="M119.48,4.986H116.3l.092-.668c.271-1.971,1.28-3.3,2.508-3.3a1.929,1.929,0,0,1,1.425.693l.367.4-.367.4a3.745,3.745,0,0,0-.778,1.969Zm-1.785-1.175h.78a5.128,5.128,0,0,1,.606-1.583C118.615,2.056,118.007,2.643,117.695,3.811Z" transform="translate(-116.304 -1.021)"/></g><g transform="translate(36.254)"><path class="b" d="M180.49,8.432h-3.311l.427-.851a5.129,5.129,0,0,0,.48-2.258,4.35,4.35,0,0,0-.838-2.813l-.367-.4.367-.4a1.93,1.93,0,0,1,1.425-.693c1.446,0,2.577,1.891,2.577,4.3a6.352,6.352,0,0,1-.6,2.783Zm-1.5-1.175h.755a5.522,5.522,0,0,0,.33-1.934c0-1.953-.886-3.348-1.578-3.1a6.051,6.051,0,0,1,.764,3.1A6.86,6.86,0,0,1,178.99,7.258Z" transform="translate(-174.084 -1.021)"/><path class="b" d="M171.959,4.986h-3.175l.092-.668c.271-1.971,1.28-3.3,2.508-3.3a1.95,1.95,0,0,1,1.427.691l.369.4-.372.4a3.756,3.756,0,0,0-.778,1.969Zm-1.785-1.175h.78a5.128,5.128,0,0,1,.606-1.583C171.094,2.056,170.487,2.643,170.174,3.811Z" transform="translate(-168.784 -1.021)"/></g><g transform="translate(54.382)"><path class="b" d="M232.966,8.432h-3.311l.427-.851a5.149,5.149,0,0,0,.482-2.258,4.344,4.344,0,0,0-.84-2.813l-.369-.4.369-.4a1.95,1.95,0,0,1,1.427-.691c1.446,0,2.577,1.891,2.577,4.3a6.366,6.366,0,0,1-.6,2.783Zm-1.5-1.175h.755a5.473,5.473,0,0,0,.333-1.934c0-1.957-.909-3.357-1.579-3.093a6.059,6.059,0,0,1,.764,3.093A6.8,6.8,0,0,1,231.465,7.258Z" transform="translate(-226.561 -1.021)"/><path class="b" d="M224.445,4.986h-3.176l.092-.668c.271-1.971,1.28-3.3,2.508-3.3a1.929,1.929,0,0,1,1.425.693l.37.4-.372.4a3.716,3.716,0,0,0-.775,1.969ZM222.66,3.811h.78a5.094,5.094,0,0,1,.6-1.583C223.594,2.056,222.972,2.643,222.66,3.811Z" transform="translate(-221.269 -1.021)"/></g></g></svg>