<svg xmlns="http://www.w3.org/2000/svg" width="17" height="17" viewBox="0 0 17 17"><defs><style>.a,.b{fill:#505050;}.a{stroke:rgba(0,0,0,0);}</style></defs><g transform="translate(0.5 0.5)"><path class="a" d="M566.5,574h-1a1.475,1.475,0,0,1-1.473-1.473v-.34a6.461,6.461,0,0,1-1-.416l-.241.241a1.473,1.473,0,0,1-2.083,0l-.71-.71a1.473,1.473,0,0,1,0-2.083l.24-.241a6.452,6.452,0,0,1-.416-1h-.34A1.475,1.475,0,0,1,558,566.5v-1a1.475,1.475,0,0,1,1.473-1.473h.34a6.458,6.458,0,0,1,.416-1l-.241-.241a1.473,1.473,0,0,1,0-2.083l.71-.71a1.472,1.472,0,0,1,2.083,0l.241.24a6.458,6.458,0,0,1,1-.416v-.34A1.475,1.475,0,0,1,565.5,558h1a1.475,1.475,0,0,1,1.473,1.473v.34a6.452,6.452,0,0,1,1,.416l.241-.241a1.473,1.473,0,0,1,2.083,0l.71.709a1.473,1.473,0,0,1,0,2.083l-.241.241a6.457,6.457,0,0,1,.416,1h.34A1.475,1.475,0,0,1,574,565.5v1a1.475,1.475,0,0,1-1.473,1.473h-.34a6.451,6.451,0,0,1-.416,1l.241.241a1.473,1.473,0,0,1,0,2.083l-.71.71a1.473,1.473,0,0,1-2.083,0l-.241-.24a6.464,6.464,0,0,1-1,.416v.34A1.474,1.474,0,0,1,566.5,574Zm-3.324-3.213a5.529,5.529,0,0,0,1.432.594.469.469,0,0,1,.352.454v.692a.536.536,0,0,0,.535.535h1a.536.536,0,0,0,.535-.535v-.692a.469.469,0,0,1,.352-.454,5.532,5.532,0,0,0,1.432-.594.469.469,0,0,1,.57.072l.49.49a.535.535,0,0,0,.757,0l.71-.71a.535.535,0,0,0,0-.757l-.49-.49a.469.469,0,0,1-.072-.57,5.526,5.526,0,0,0,.595-1.432.468.468,0,0,1,.454-.352h.692a.536.536,0,0,0,.535-.535v-1a.536.536,0,0,0-.535-.535h-.692a.469.469,0,0,1-.454-.352,5.526,5.526,0,0,0-.595-1.432.468.468,0,0,1,.072-.57l.49-.49a.535.535,0,0,0,0-.757l-.71-.71a.535.535,0,0,0-.757,0l-.49.491a.469.469,0,0,1-.57.072,5.531,5.531,0,0,0-1.432-.595.469.469,0,0,1-.352-.454v-.692a.536.536,0,0,0-.535-.536h-1a.536.536,0,0,0-.535.536v.692a.469.469,0,0,1-.352.454,5.533,5.533,0,0,0-1.432.594.469.469,0,0,1-.57-.072l-.49-.49a.535.535,0,0,0-.757,0l-.71.71a.535.535,0,0,0,0,.757l.491.49a.469.469,0,0,1,.072.57,5.532,5.532,0,0,0-.594,1.432.469.469,0,0,1-.454.352h-.692a.536.536,0,0,0-.536.536v1a.536.536,0,0,0,.536.535h.692a.469.469,0,0,1,.454.352,5.532,5.532,0,0,0,.594,1.432.469.469,0,0,1-.072.57l-.491.49a.535.535,0,0,0,0,.757l.71.71a.535.535,0,0,0,.757,0l.49-.49a.471.471,0,0,1,.57-.072Zm0,0" transform="translate(-558 -558)"/><path class="b" d="M669.449,672.449a3,3,0,1,1,3-3,3,3,0,0,1-3,3Zm0-5.192a2.192,2.192,0,1,0,2.192,2.192,2.195,2.195,0,0,0-2.192-2.192Zm0,0" transform="translate(-661.448 -661.449)"/></g></svg>