<svg xmlns="http://www.w3.org/2000/svg" width="19.763" height="32.116" viewBox="0 0 19.763 32.116">
  <g id="Icon_ionic-ios-bookmark" data-name="Icon ionic-ios-bookmark" transform="translate(-9 -3.375)" fill="none">
    <path d="M9,5.845V35.181a.309.309,0,0,0,.494.247l9.017-7.1a.625.625,0,0,1,.741,0l9.017,7.1a.309.309,0,0,0,.494-.247V5.845a2.468,2.468,0,0,0-2.47-2.47H11.47A2.468,2.468,0,0,0,9,5.845Z" stroke="none"/>
    <path d="M 11.47035026550293 5.375003814697266 C 11.20660018920898 5.375003814697266 11 5.58160400390625 11 5.845352172851562 L 11 31.69573211669922 L 17.2733211517334 26.75442314147949 L 17.30504989624023 26.72942352294922 L 17.33777046203613 26.70573425292969 C 17.79103088378906 26.37747192382812 18.3258113861084 26.20397186279297 18.88430023193359 26.20397186279297 C 19.44675064086914 26.20397186279297 20.00349044799805 26.38921356201172 20.45196151733398 26.72556304931641 L 20.47090148925781 26.73977279663086 L 20.48950004577637 26.75442314147949 L 26.76282119750977 31.69573211669922 L 26.76282119750977 5.845352172851562 C 26.76282119750977 5.58160400390625 26.55622100830078 5.375003814697266 26.29247093200684 5.375003814697266 L 11.47035026550293 5.375003814697266 M 11.47035026550293 3.375003814697266 L 26.29247093200684 3.375003814697266 C 27.65888023376465 3.375003814697266 28.76282119750977 4.47894287109375 28.76282119750977 5.845352172851562 L 28.76282119750977 35.18079376220703 C 28.76282119750977 35.36373901367188 28.61153984069824 35.49094390869141 28.4519157409668 35.49094390869141 C 28.38926696777344 35.49094390869141 28.3253231048584 35.47134399414062 28.26874923706055 35.42782211303711 L 19.25196075439453 28.3255615234375 C 19.14388465881348 28.24450302124023 19.01457786560059 28.20397186279297 18.88430595397949 28.20397186279297 C 18.7540340423584 28.20397186279297 18.62279510498047 28.24450302124023 18.51086044311523 28.3255615234375 L 9.494070053100586 35.42782211303711 C 9.437482833862305 35.47135162353516 9.373558044433594 35.49094772338867 9.310895919799805 35.49094772338867 C 9.151287078857422 35.49094772338867 9 35.36373138427734 9 35.18079376220703 L 9 5.845352172851562 C 9 4.47894287109375 10.10394096374512 3.375003814697266 11.47035026550293 3.375003814697266 Z" stroke="none" fill="#6d6d6d"/>
  </g>
</svg>
