<svg id="채택하기_버튼" data-name="채택하기 버튼" xmlns="http://www.w3.org/2000/svg" width="136" height="48" viewBox="0 0 136 48">
  <g id="사각형_645" data-name="사각형 645" fill="#fff" stroke="#e8e8e8" stroke-width="2">
    <rect width="136" height="48" rx="5" stroke="none"/>
    <rect x="1" y="1" width="134" height="46" rx="4" fill="none"/>
  </g>
  <g id="ᄎ_ᄐ_ᆨᄋ_ᆫ료" data-name="채택완료" transform="translate(10.2 6.8)">
    <g id="그룹_5695" data-name="그룹 5695" transform="translate(8.073 4.272)">
      <g id="그룹_5694" data-name="그룹 5694">
        <path id="패스_7840" data-name="패스 7840" d="M146.523,64.7a1.281,1.281,0,0,0-1.812,0L129.338,80.034l-5.546-6.024a1.281,1.281,0,1,0-1.885,1.736l6.45,7a1.28,1.28,0,0,0,.915.413h.027a1.283,1.283,0,0,0,.9-.374L146.52,66.516A1.281,1.281,0,0,0,146.523,64.7Z" transform="translate(-121.568 -64.327)" fill="#bebebe"/>
      </g>
    </g>
    <g id="그룹_5697" data-name="그룹 5697">
      <g id="그룹_5696" data-name="그룹 5696">
        <path id="패스_7841" data-name="패스 7841" d="M32.719,15.719A1.281,1.281,0,0,0,31.437,17,14.437,14.437,0,1,1,17,2.563,1.281,1.281,0,1,0,17,0,17,17,0,1,0,34,17,1.281,1.281,0,0,0,32.719,15.719Z" fill="#bebebe"/>
      </g>
    </g>
  </g>
  <text id="채택하기" transform="translate(54 32)" fill="#bebebe" font-size="20" font-family="AppleSDGothicNeo-Bold, Apple SD Gothic Neo" font-weight="700"><tspan x="0" y="0">채택하기</tspan></text>
</svg>
