<svg id="그룹_5413" data-name="그룹 5413" xmlns="http://www.w3.org/2000/svg" width="24" height="24" viewBox="0 0 24 24">
  <path id="패스_6713" data-name="패스 6713" d="M764.294,801.876a3.955,3.955,0,0,0,.763-2.353,3.406,3.406,0,0,0-1.185-2.581,4.022,4.022,0,0,0-2.814-1.1h-2.751a5.922,5.922,0,0,0,.75-2.767,5.627,5.627,0,0,0-.544-2.684,3.333,3.333,0,0,0-1.594-1.465,5.769,5.769,0,0,0-2.362-.469,2.074,2.074,0,0,0-1.406.536,3.407,3.407,0,0,0-.969,1.557q-.3.953-.475,1.822a2.384,2.384,0,0,1-.553,1.236q-.766.764-1.673,1.845a13.305,13.305,0,0,1-2.142,2.237h-4.28a2.016,2.016,0,0,0-1.415.539,1.721,1.721,0,0,0-.586,1.306v9.23a1.7,1.7,0,0,0,.586,1.3,2.015,2.015,0,0,0,1.415.544h4.5a12.259,12.259,0,0,1,2.156.577q1.92.617,3.382.941a13.476,13.476,0,0,0,2.961.325h2.016a5.243,5.243,0,0,0,3.548-1.16,3.927,3.927,0,0,0,1.329-3.165,365.533,365.533,0,0,1,1.483-5.263,3.488,3.488,0,0,0-.139-1ZM744.762,808.5a1.048,1.048,0,0,1-1.409,0,.864.864,0,0,1-.3-.652.855.855,0,0,1,.3-.647,1.037,1.037,0,0,1,1.409,0,.857.857,0,0,1,.3.647.866.866,0,0,1-.3.652Zm17.961-7.79c-.227.444-.5.669-.836.68a1.917,1.917,0,0,1,.391.684,2.431,2.431,0,0,1,.154.8,2.21,2.21,0,0,1-.826,1.714,1.882,1.882,0,0,1,.281,1,2.267,2.267,0,0,1-.276,1.061,1.64,1.64,0,0,1-.741.755,4.61,4.61,0,0,1,.079.809q0,2.408-3,2.41h-1.893a18.537,18.537,0,0,1-5.344-1.053c-.052-.021-.2-.069-.451-.152s-.436-.142-.557-.182-.3-.094-.544-.165-.444-.122-.6-.158-.323-.066-.516-.092a3.138,3.138,0,0,0-.492-.044h-.5v-9.23h.5a1.368,1.368,0,0,0,.553-.131,2.479,2.479,0,0,0,.625-.388c.215-.173.415-.344.6-.512a8.158,8.158,0,0,0,.622-.635c.23-.253.41-.458.542-.611s.293-.352.49-.595.319-.382.361-.428c.572-.655.975-1.095,1.2-1.314a3.607,3.607,0,0,0,.928-1.579c.193-.641.352-1.242.478-1.811a2.294,2.294,0,0,1,.591-1.224,2.373,2.373,0,0,1,2,.677,3.536,3.536,0,0,1,.5,2.091,5.574,5.574,0,0,1-.75,2.315,5.549,5.549,0,0,0-.747,2.3h5.5a2.024,2.024,0,0,1,1.392.553,1.716,1.716,0,0,1,.609,1.292,2.654,2.654,0,0,1-.336,1.168Zm0,0" transform="translate(-741.057 -788.461)" fill="#d81858"/>
</svg>
