<svg xmlns="http://www.w3.org/2000/svg" width="124" height="27" viewBox="0 0 124 27">
  <g id="그룹_9766" data-name="그룹 9766" transform="translate(-1444 -658)">
    <text id="채택대기중" transform="translate(1568 679)" font-size="20" font-family="AppleSDGothicNeo-Bold, Apple SD Gothic Neo" font-weight="700"><tspan x="-86.5" y="0">채택대기중</tspan></text>
    <g id="로딩중" transform="translate(1443.383 658)">
      <g id="그룹_5613" data-name="그룹 5613" transform="translate(0.617 0)">
        <circle id="타원_119" data-name="타원 119" cx="2.925" cy="2.925" r="2.925" transform="translate(9.666)"/>
        <circle id="타원_120" data-name="타원 120" cx="1.755" cy="1.755" r="1.755" transform="translate(10.835 21.669)"/>
        <circle id="타원_121" data-name="타원 121" cx="2.633" cy="2.633" r="2.633" transform="translate(2.684 3.269)"/>
        <circle id="타원_122" data-name="타원 122" cx="1.463" cy="1.463" r="1.463" transform="translate(18.392 18.983)"/>
        <circle id="타원_123" data-name="타원 123" cx="2.34" cy="2.34" r="2.34" transform="translate(0 10.84)"/>
        <circle id="타원_124" data-name="타원 124" cx="1.169" cy="1.169" r="1.169" transform="translate(21.661 12.009)"/>
        <path id="패스_7712" data-name="패스 7712" d="M4.662,19.808a2.047,2.047,0,1,0,2.895,0A2.046,2.046,0,0,0,4.662,19.808Z" transform="translate(-0.792 -0.807)"/>
        <circle id="타원_125" data-name="타원 125" cx="0.877" cy="0.877" r="0.877" transform="translate(18.976 5.061)"/>
      </g>
    </g>
  </g>
</svg>
