<svg xmlns="http://www.w3.org/2000/svg" xmlns:xlink="http://www.w3.org/1999/xlink" width="740" height="516" viewBox="0 0 740 516">
  <defs>
    <filter id="패스_8318" x="0" y="0" width="740" height="516" filterUnits="userSpaceOnUse">
      <feOffset input="SourceAlpha"/>
      <feGaussianBlur stdDeviation="6" result="blur"/>
      <feFlood flood-opacity="0.604"/>
      <feComposite operator="in" in2="blur"/>
      <feComposite in="SourceGraphic"/>
    </filter>
    <linearGradient id="linear-gradient" x1="-0.032" y1="-0.007" x2="0.95" y2="1.095" gradientUnits="objectBoundingBox">
      <stop offset="0" stop-color="#c89831"/>
      <stop offset="0.086" stop-color="#d6aa3c"/>
      <stop offset="0.145" stop-color="#e3c96e"/>
      <stop offset="0.258" stop-color="#fae7a9"/>
      <stop offset="0.36" stop-color="#e3c96e"/>
      <stop offset="0.428" stop-color="#e3c96e"/>
      <stop offset="0.618" stop-color="#d6aa3c"/>
      <stop offset="0.796" stop-color="#c89831"/>
      <stop offset="0.909" stop-color="#d6aa3c"/>
      <stop offset="1" stop-color="#fae7a9"/>
    </linearGradient>
    <linearGradient id="linear-gradient-2" x1="0.121" y1="-0.465" x2="0.808" y2="1.433" xlink:href="#linear-gradient"/>
    <linearGradient id="linear-gradient-3" x1="0.143" y1="-0.411" x2="0.858" y2="1.07" xlink:href="#linear-gradient"/>
    <linearGradient id="linear-gradient-4" x1="-80.09" y1="-0.007" x2="-79.108" y2="1.095" xlink:href="#linear-gradient"/>
    <linearGradient id="linear-gradient-5" x1="-56.551" y1="-0.465" x2="-55.865" y2="1.433" xlink:href="#linear-gradient"/>
    <linearGradient id="linear-gradient-6" x1="-58.422" y1="-0.411" x2="-57.707" y2="1.07" xlink:href="#linear-gradient"/>
    <linearGradient id="linear-gradient-7" x1="0.333" y1="-2.372" x2="0.649" y2="3.886" xlink:href="#linear-gradient"/>
    <linearGradient id="linear-gradient-8" x1="-0.032" y1="-8.953" x2="0.95" y2="-7.851" xlink:href="#linear-gradient"/>
    <linearGradient id="linear-gradient-9" x1="0.121" y1="-14.873" x2="0.808" y2="-12.975" xlink:href="#linear-gradient"/>
    <linearGradient id="linear-gradient-10" x1="0.143" y1="-11.716" x2="0.858" y2="-10.236" xlink:href="#linear-gradient"/>
    <linearGradient id="linear-gradient-11" x1="-80.09" y1="-8.954" x2="-79.108" y2="-7.851" xlink:href="#linear-gradient"/>
    <linearGradient id="linear-gradient-12" x1="-56.551" y1="-14.873" x2="-55.865" y2="-12.975" xlink:href="#linear-gradient"/>
    <linearGradient id="linear-gradient-13" x1="-58.422" y1="-11.716" x2="-57.707" y2="-10.236" xlink:href="#linear-gradient"/>
    <linearGradient id="linear-gradient-14" x1="0.333" y1="-18.156" x2="0.649" y2="-11.898" xlink:href="#linear-gradient"/>
    <linearGradient id="linear-gradient-15" x1="-64.932" y1="-3.026" x2="253.654" y2="14.094" xlink:href="#linear-gradient"/>
    <linearGradient id="linear-gradient-16" x1="-82.29" y1="-3.026" x2="236.295" y2="14.094" xlink:href="#linear-gradient"/>
  </defs>
  <g id="메인홈_비로그인시__노트하우_이용권_이미지" data-name="메인홈 (비로그인시)_노트하우 이용권 이미지" transform="translate(-302 -4958)">
    <g id="그룹_6060" data-name="그룹 6060">
      <g transform="matrix(1, 0, 0, 1, 302, 4958)" filter="url(#패스_8318)">
        <path id="패스_8318-2" data-name="패스 8318" d="M15,0H689a15,15,0,0,1,15,15V465a15,15,0,0,1-15,15H15A15,15,0,0,1,0,465V15A15,15,0,0,1,15,0Z" transform="translate(18 18)"/>
      </g>
      <g id="그룹_3245" data-name="그룹 3245" transform="translate(323.979 5519.033) rotate(-90)">
        <g id="그룹_3232" data-name="그룹 3232" transform="translate(71.57 4.022)">
          <g id="그룹_3231" data-name="그룹 3231">
            <g id="그룹_3230" data-name="그룹 3230" transform="translate(18.96)">
              <g id="그룹_3229" data-name="그룹 3229">
                <path id="패스_6636" data-name="패스 6636" d="M75.232,40.628a19.357,19.357,0,0,0,4.279-2.958,14.479,14.479,0,0,0,4.269-10.812c-.1-4.517-2.424-9.118-1.917-13.594a10.379,10.379,0,0,1,2.321-5.45,10.824,10.824,0,0,1,3.305-2.668,10.286,10.286,0,0,1,4.59-1.124A9.76,9.76,0,0,1,98.741,6.55a9.563,9.563,0,0,1,2.927,7.994,8.1,8.1,0,0,1-1.72,4.31,6.489,6.489,0,0,1-4.02,2.342,6.122,6.122,0,0,1-4.46-.85,5.815,5.815,0,0,1-2.487-3.518,4.946,4.946,0,0,1,.58-3.911,4.664,4.664,0,0,1,2.86-2.015,3.972,3.972,0,0,1,2.9.378,3.645,3.645,0,0,1,1.492,1.653,2.846,2.846,0,0,1,.249,1.881,4.6,4.6,0,0,0-.435-1.787,3.49,3.49,0,0,0-4.1-1.73,4.284,4.284,0,0,0-2.979,5.393A5.3,5.3,0,0,0,95.8,20.481c2.87-.43,4.849-3.233,5.02-6.015A8.7,8.7,0,0,0,98.1,7.25a8.865,8.865,0,0,0-6.02-2.217A9.31,9.31,0,0,0,87.96,6.063a9.979,9.979,0,0,0-3,2.4,9.462,9.462,0,0,0-2.15,4.916c-.56,4.072,1.658,8.719,1.7,13.47a14.775,14.775,0,0,1-4.719,11.118A11.7,11.7,0,0,1,75.232,40.628Z" transform="translate(-75.23 -4.022)" fill="url(#linear-gradient)"/>
              </g>
            </g>
            <path id="패스_6637" data-name="패스 6637" d="M109.457,21.506s-.565-.052-1.559-.2-2.419-.342-4.17-.523a87.157,87.157,0,0,0-13.319-.373c-5.041.228-10.372.9-14.594,2.7a8.049,8.049,0,0,0-2.673,1.668,2.282,2.282,0,0,0-.72,2.264c.3.611,1.166.829,1.834.933a8.453,8.453,0,0,0,1.865.031,14.03,14.03,0,0,0,4.606-1.368A24.727,24.727,0,0,0,86.792,22.3a72.8,72.8,0,0,0,6.2-6.771l3.176-3.72a14.3,14.3,0,0,1,3.782-3.269,6.991,6.991,0,0,1,4.823-.839,3.867,3.867,0,0,1,2.14,1.181,2.82,2.82,0,0,1,.6,2.29,6.01,6.01,0,0,1-2.373,3.564,12.121,12.121,0,0,1-3.285,1.875,15.01,15.01,0,0,1-5.466.927,11.8,11.8,0,0,1-2.067-.187,17.672,17.672,0,0,0,7.419-1.021,11.7,11.7,0,0,0,3.16-1.881,5.625,5.625,0,0,0,2.181-3.341,2.351,2.351,0,0,0-.523-1.927,3.4,3.4,0,0,0-1.891-1,6.465,6.465,0,0,0-4.45.834c-2.766,1.6-4.6,4.543-6.745,6.937a71.824,71.824,0,0,1-6.191,6.864,25.176,25.176,0,0,1-6.222,4.507,14.766,14.766,0,0,1-4.87,1.456,9.214,9.214,0,0,1-2.046-.041,3.056,3.056,0,0,1-2.4-1.368,2.974,2.974,0,0,1,.87-3.1,8.667,8.667,0,0,1,2.932-1.808c4.357-1.813,9.786-2.435,14.842-2.6a81.949,81.949,0,0,1,13.381.622c1.751.228,3.176.477,4.16.668S109.457,21.506,109.457,21.506Z" transform="translate(-71.57 10.806)" fill="url(#linear-gradient-2)"/>
          </g>
          <path id="패스_6638" data-name="패스 6638" d="M109.46,34.042a4.782,4.782,0,0,1-1.15-.528,23.937,23.937,0,0,1-2.844-1.844A88,88,0,0,1,97.5,24.458C91.6,18.956,85.515,12,82.116,11.175a9.649,9.649,0,0,0-3.709-.56,7.8,7.8,0,0,0-2.59.523A2.732,2.732,0,0,0,74.024,13.1a2.6,2.6,0,0,0,1.269,2.6,9.218,9.218,0,0,0,3.331,1.357A16.681,16.681,0,0,0,86.23,16.7a51.5,51.5,0,0,0,7.035-2.544,31.41,31.41,0,0,0,5.647-2.865,10.9,10.9,0,0,0,3.082-3.057c.56-.886.741-1.461.793-1.44a5.539,5.539,0,0,1-.611,1.549,10.609,10.609,0,0,1-3.031,3.274,30.416,30.416,0,0,1-5.652,3.067,50.443,50.443,0,0,1-7.077,2.72,17.321,17.321,0,0,1-7.963.477,9.86,9.86,0,0,1-3.683-1.456,3.535,3.535,0,0,1-1.684-3.492,3.685,3.685,0,0,1,2.342-2.7,8.759,8.759,0,0,1,2.932-.627,10.5,10.5,0,0,1,4.113.606c1.792.57,4.486,2.5,7.061,5.175,2.611,2.637,5.621,5.673,8.481,8.553a104.76,104.76,0,0,0,7.693,7.413,33.207,33.207,0,0,0,2.7,1.984A8.313,8.313,0,0,1,109.46,34.042Z" transform="translate(-65.459 7.579)" fill="url(#linear-gradient-3)"/>
        </g>
        <g id="그룹_3236" data-name="그룹 3236" transform="translate(489.584 4.022)">
          <g id="그룹_3235" data-name="그룹 3235">
            <g id="그룹_3234" data-name="그룹 3234">
              <g id="그룹_3233" data-name="그룹 3233">
                <path id="패스_6639" data-name="패스 6639" d="M155.873,40.628a19.448,19.448,0,0,1-4.284-2.958,14.5,14.5,0,0,1-4.264-10.812c.1-4.517,2.425-9.118,1.917-13.594a10.42,10.42,0,0,0-2.321-5.45,10.822,10.822,0,0,0-3.305-2.668,10.286,10.286,0,0,0-4.59-1.124,9.752,9.752,0,0,0-6.662,2.528,9.563,9.563,0,0,0-2.927,7.994,8.1,8.1,0,0,0,1.72,4.31,6.489,6.489,0,0,0,4.02,2.342,6.127,6.127,0,0,0,4.46-.85,5.815,5.815,0,0,0,2.487-3.518,4.967,4.967,0,0,0-.58-3.911,4.661,4.661,0,0,0-2.865-2.015,3.962,3.962,0,0,0-2.891.378,3.615,3.615,0,0,0-1.492,1.653,2.846,2.846,0,0,0-.249,1.881,4.6,4.6,0,0,1,.435-1.787,3.49,3.49,0,0,1,4.1-1.73,4.284,4.284,0,0,1,2.979,5.393,5.3,5.3,0,0,1-6.258,3.792c-2.87-.43-4.849-3.233-5.02-6.015A8.7,8.7,0,0,1,133,7.25a8.861,8.861,0,0,1,6.015-2.217,9.316,9.316,0,0,1,4.129,1.031,9.978,9.978,0,0,1,3,2.4,9.5,9.5,0,0,1,2.15,4.916c.56,4.072-1.658,8.719-1.7,13.47a14.813,14.813,0,0,0,4.72,11.118A11.737,11.737,0,0,0,155.873,40.628Z" transform="translate(-129.386 -4.022)" fill="url(#linear-gradient-4)"/>
              </g>
            </g>
            <path id="패스_6640" data-name="패스 6640" d="M130.846,21.506s.565-.052,1.554-.2,2.424-.342,4.176-.523a87.134,87.134,0,0,1,13.319-.373c5.041.228,10.372.9,14.594,2.7a8.049,8.049,0,0,1,2.673,1.668,2.293,2.293,0,0,1,.72,2.264c-.3.611-1.166.829-1.834.933a8.453,8.453,0,0,1-1.865.031,14,14,0,0,1-4.606-1.368,24.633,24.633,0,0,1-6.067-4.341,72.093,72.093,0,0,1-6.2-6.771c-1.047-1.228-2.114-2.471-3.176-3.72a14.3,14.3,0,0,0-3.782-3.269,6.991,6.991,0,0,0-4.823-.839,3.85,3.85,0,0,0-2.14,1.181,2.82,2.82,0,0,0-.6,2.29,6.01,6.01,0,0,0,2.373,3.564,12.045,12.045,0,0,0,3.285,1.875,15.01,15.01,0,0,0,5.466.927,11.8,11.8,0,0,0,2.067-.187,17.693,17.693,0,0,1-7.424-1.021,11.679,11.679,0,0,1-3.155-1.881,5.625,5.625,0,0,1-2.181-3.341,2.352,2.352,0,0,1,.523-1.927,3.384,3.384,0,0,1,1.886-1,6.474,6.474,0,0,1,4.455.834c2.761,1.6,4.59,4.543,6.745,6.937a71.828,71.828,0,0,0,6.191,6.864,25.177,25.177,0,0,0,6.222,4.507,14.777,14.777,0,0,0,4.865,1.456,9.21,9.21,0,0,0,2.046-.041,3.065,3.065,0,0,0,2.409-1.368,2.974,2.974,0,0,0-.87-3.1,8.718,8.718,0,0,0-2.932-1.808c-4.357-1.813-9.786-2.435-14.842-2.6a81.947,81.947,0,0,0-13.381.622c-1.751.228-3.176.477-4.165.668S130.846,21.506,130.846,21.506Z" transform="translate(-123.284 10.806)" fill="url(#linear-gradient-5)"/>
          </g>
          <path id="패스_6641" data-name="패스 6641" d="M129.667,34.042a4.783,4.783,0,0,0,1.15-.528,23.946,23.946,0,0,0,2.844-1.844,87.993,87.993,0,0,0,7.963-7.211c5.906-5.5,11.983-12.459,15.386-13.283a9.648,9.648,0,0,1,3.709-.56,7.82,7.82,0,0,1,2.59.523A2.741,2.741,0,0,1,165.1,13.1a2.6,2.6,0,0,1-1.269,2.6A9.218,9.218,0,0,1,160.5,17.05a16.706,16.706,0,0,1-7.61-.347,51.677,51.677,0,0,1-7.03-2.544,31.412,31.412,0,0,1-5.647-2.865,10.9,10.9,0,0,1-3.083-3.057c-.559-.886-.741-1.461-.793-1.44a5.54,5.54,0,0,0,.611,1.549,10.543,10.543,0,0,0,3.031,3.274,30.413,30.413,0,0,0,5.652,3.067,50.367,50.367,0,0,0,7.072,2.72,17.347,17.347,0,0,0,7.968.477,9.894,9.894,0,0,0,3.683-1.456,3.543,3.543,0,0,0,1.684-3.492,3.69,3.69,0,0,0-2.347-2.7,8.731,8.731,0,0,0-2.927-.627,10.486,10.486,0,0,0-4.113.606c-1.792.57-4.486,2.5-7.061,5.175-2.611,2.637-5.626,5.673-8.481,8.553a104.749,104.749,0,0,1-7.693,7.413,33.135,33.135,0,0,1-2.709,1.984A7.94,7.94,0,0,0,129.667,34.042Z" transform="translate(-128.218 7.579)" fill="url(#linear-gradient-6)"/>
        </g>
        <path id="패스_6642" data-name="패스 6642" d="M449.322,5.535V4.991H96.3v.544c0,16.93-16.716,19.391-17.432,19.489l.3,1.062c.179-.026,18.32-2.647,18.685-20.013H447.771c.373,17.365,18.506,19.987,18.693,20.013l.291-1.062C466.583,25,449.322,22.507,449.322,5.535Z" transform="translate(30.49 6.051)" fill="url(#linear-gradient-7)"/>
        <g id="그룹_3240" data-name="그룹 3240" transform="translate(71.57 650.398)">
          <g id="그룹_3239" data-name="그룹 3239" transform="translate(0 2.003)">
            <g id="그룹_3238" data-name="그룹 3238" transform="translate(18.96 3.014)">
              <g id="그룹_3237" data-name="그룹 3237">
                <path id="패스_6643" data-name="패스 6643" d="M75.232,128.91a19.587,19.587,0,0,1,4.279,2.958,14.479,14.479,0,0,1,4.269,10.812c-.1,4.518-2.424,9.118-1.917,13.594a10.38,10.38,0,0,0,2.321,5.45,10.824,10.824,0,0,0,3.305,2.668,10.147,10.147,0,0,0,4.59,1.124,9.76,9.76,0,0,0,6.662-2.528,9.563,9.563,0,0,0,2.927-7.994,8.1,8.1,0,0,0-1.72-4.31,6.512,6.512,0,0,0-4.02-2.342,6.123,6.123,0,0,0-4.46.85,5.83,5.83,0,0,0-2.487,3.518,4.961,4.961,0,0,0,.58,3.917,4.655,4.655,0,0,0,2.86,2.01,3.946,3.946,0,0,0,2.9-.378,3.644,3.644,0,0,0,1.492-1.653,2.847,2.847,0,0,0,.249-1.88,4.584,4.584,0,0,1-.435,1.787,3.492,3.492,0,0,1-4.1,1.735,4.292,4.292,0,0,1-2.979-5.4,5.3,5.3,0,0,1,6.258-3.787c2.87.425,4.849,3.228,5.02,6.015a8.693,8.693,0,0,1-2.715,7.211,8.839,8.839,0,0,1-6.02,2.217,9.31,9.31,0,0,1-4.124-1.031,9.98,9.98,0,0,1-3-2.4,9.463,9.463,0,0,1-2.15-4.911c-.56-4.077,1.658-8.724,1.7-13.475a14.763,14.763,0,0,0-4.719-11.112A11.68,11.68,0,0,0,75.232,128.91Z" transform="translate(-75.23 -128.91)" fill="url(#linear-gradient-8)"/>
              </g>
            </g>
            <path id="패스_6644" data-name="패스 6644" d="M109.457,135.643s-.565.047-1.559.2-2.419.337-4.17.523a87.22,87.22,0,0,1-13.319.368c-5.041-.223-10.372-.9-14.594-2.7a7.965,7.965,0,0,1-2.673-1.668,2.282,2.282,0,0,1-.72-2.264c.3-.606,1.166-.829,1.834-.933a8.458,8.458,0,0,1,1.865-.031,14.161,14.161,0,0,1,4.606,1.368,24.727,24.727,0,0,1,6.067,4.341,72.8,72.8,0,0,1,6.2,6.771q1.57,1.842,3.176,3.725a14.37,14.37,0,0,0,3.782,3.264,6.991,6.991,0,0,0,4.823.839,3.892,3.892,0,0,0,2.14-1.176,2.832,2.832,0,0,0,.6-2.3,5.983,5.983,0,0,0-2.373-3.559,12.01,12.01,0,0,0-3.285-1.881,14.872,14.872,0,0,0-5.466-.922,11.8,11.8,0,0,0-2.067.187,17.5,17.5,0,0,1,7.419,1.015,11.7,11.7,0,0,1,3.16,1.881,5.625,5.625,0,0,1,2.181,3.342,2.351,2.351,0,0,1-.523,1.927,3.4,3.4,0,0,1-1.891,1,6.465,6.465,0,0,1-4.45-.834c-2.766-1.6-4.6-4.543-6.745-6.937a71.826,71.826,0,0,0-6.191-6.864,25.279,25.279,0,0,0-6.222-4.5,14.8,14.8,0,0,0-4.87-1.461,9.251,9.251,0,0,0-2.046.047,3.035,3.035,0,0,0-2.4,1.363,2.974,2.974,0,0,0,.87,3.1,8.6,8.6,0,0,0,2.932,1.813c4.357,1.808,9.786,2.43,14.842,2.59a81.964,81.964,0,0,0,13.381-.622c1.751-.228,3.176-.477,4.16-.668S109.457,135.643,109.457,135.643Z" transform="translate(-71.57 -128.328)" fill="url(#linear-gradient-9)"/>
          </g>
          <path id="패스_6645" data-name="패스 6645" d="M109.46,127.944a4.779,4.779,0,0,0-1.15.528,23.925,23.925,0,0,0-2.844,1.844,87.989,87.989,0,0,0-7.963,7.211c-5.906,5.5-11.988,12.464-15.386,13.283a9.649,9.649,0,0,1-3.709.56,7.8,7.8,0,0,1-2.59-.523,2.723,2.723,0,0,1-1.792-1.958,2.593,2.593,0,0,1,1.269-2.59,9.134,9.134,0,0,1,3.331-1.363,16.752,16.752,0,0,1,7.605.347,51.5,51.5,0,0,1,7.035,2.544,31.072,31.072,0,0,1,5.647,2.87,10.821,10.821,0,0,1,3.082,3.051c.56.886.741,1.466.793,1.445a5.53,5.53,0,0,0-.611-1.554,10.609,10.609,0,0,0-3.031-3.274,30.421,30.421,0,0,0-5.652-3.067,50.453,50.453,0,0,0-7.077-2.72,17.321,17.321,0,0,0-7.963-.477,9.948,9.948,0,0,0-3.683,1.456,3.535,3.535,0,0,0-1.684,3.492,3.684,3.684,0,0,0,2.342,2.7,8.757,8.757,0,0,0,2.932.627,10.408,10.408,0,0,0,4.113-.606c1.792-.57,4.486-2.492,7.061-5.175,2.611-2.632,5.621-5.673,8.481-8.553a105.866,105.866,0,0,1,7.693-7.413,33.2,33.2,0,0,1,2.7-1.984A8.323,8.323,0,0,0,109.46,127.944Z" transform="translate(-65.459 -127.941)" fill="url(#linear-gradient-10)"/>
        </g>
        <g id="그룹_3244" data-name="그룹 3244" transform="translate(489.584 650.398)">
          <g id="그룹_3243" data-name="그룹 3243" transform="translate(0 2.003)">
            <g id="그룹_3242" data-name="그룹 3242" transform="translate(0 3.014)">
              <g id="그룹_3241" data-name="그룹 3241">
                <path id="패스_6646" data-name="패스 6646" d="M155.873,128.91a19.679,19.679,0,0,0-4.284,2.958,14.5,14.5,0,0,0-4.264,10.812c.1,4.518,2.425,9.118,1.917,13.594a10.42,10.42,0,0,1-2.321,5.45,10.822,10.822,0,0,1-3.305,2.668,10.147,10.147,0,0,1-4.59,1.124,9.751,9.751,0,0,1-6.662-2.528,9.563,9.563,0,0,1-2.927-7.994,8.1,8.1,0,0,1,1.72-4.31,6.513,6.513,0,0,1,4.02-2.342,6.128,6.128,0,0,1,4.46.85,5.83,5.83,0,0,1,2.487,3.518,4.983,4.983,0,0,1-.58,3.917,4.652,4.652,0,0,1-2.865,2.01,3.936,3.936,0,0,1-2.891-.378,3.614,3.614,0,0,1-1.492-1.653,2.847,2.847,0,0,1-.249-1.88,4.586,4.586,0,0,0,.435,1.787,3.492,3.492,0,0,0,4.1,1.735,4.292,4.292,0,0,0,2.979-5.4,5.3,5.3,0,0,0-6.258-3.787c-2.87.425-4.849,3.228-5.02,6.015A8.693,8.693,0,0,0,133,162.289a8.836,8.836,0,0,0,6.015,2.217,9.316,9.316,0,0,0,4.129-1.031,9.979,9.979,0,0,0,3-2.4,9.505,9.505,0,0,0,2.15-4.911c.56-4.077-1.658-8.724-1.7-13.475a14.8,14.8,0,0,1,4.72-11.112A11.715,11.715,0,0,1,155.873,128.91Z" transform="translate(-129.386 -128.91)" fill="url(#linear-gradient-11)"/>
              </g>
            </g>
            <path id="패스_6647" data-name="패스 6647" d="M130.846,135.643s.565.047,1.554.2,2.424.337,4.176.523a87.2,87.2,0,0,0,13.319.368c5.041-.223,10.372-.9,14.594-2.7a7.965,7.965,0,0,0,2.673-1.668,2.293,2.293,0,0,0,.72-2.264c-.3-.606-1.166-.829-1.834-.933a8.457,8.457,0,0,0-1.865-.031,14.125,14.125,0,0,0-4.606,1.368,24.633,24.633,0,0,0-6.067,4.341,72.094,72.094,0,0,0-6.2,6.771l-3.176,3.725a14.371,14.371,0,0,1-3.782,3.264,6.991,6.991,0,0,1-4.823.839,3.874,3.874,0,0,1-2.14-1.176,2.832,2.832,0,0,1-.6-2.3,5.983,5.983,0,0,1,2.373-3.559,11.935,11.935,0,0,1,3.285-1.881,14.872,14.872,0,0,1,5.466-.922,11.794,11.794,0,0,1,2.067.187,17.524,17.524,0,0,0-7.424,1.015,11.677,11.677,0,0,0-3.155,1.881,5.625,5.625,0,0,0-2.181,3.342,2.352,2.352,0,0,0,.523,1.927,3.384,3.384,0,0,0,1.886,1,6.474,6.474,0,0,0,4.455-.834c2.761-1.6,4.59-4.543,6.745-6.937a71.83,71.83,0,0,1,6.191-6.864,25.279,25.279,0,0,1,6.222-4.5,14.812,14.812,0,0,1,4.865-1.461,9.247,9.247,0,0,1,2.046.047,3.043,3.043,0,0,1,2.409,1.363,2.974,2.974,0,0,1-.87,3.1,8.649,8.649,0,0,1-2.932,1.813c-4.357,1.808-9.786,2.43-14.842,2.59a81.962,81.962,0,0,1-13.381-.622c-1.751-.228-3.176-.477-4.165-.668S130.846,135.643,130.846,135.643Z" transform="translate(-123.284 -128.328)" fill="url(#linear-gradient-12)"/>
          </g>
          <path id="패스_6648" data-name="패스 6648" d="M129.667,127.944a4.78,4.78,0,0,1,1.15.528,23.934,23.934,0,0,1,2.844,1.844,87.984,87.984,0,0,1,7.963,7.211c5.906,5.5,11.983,12.464,15.386,13.283a9.648,9.648,0,0,0,3.709.56,7.822,7.822,0,0,0,2.59-.523,2.732,2.732,0,0,0,1.792-1.958,2.593,2.593,0,0,0-1.269-2.59,9.134,9.134,0,0,0-3.331-1.363,16.778,16.778,0,0,0-7.61.347,51.677,51.677,0,0,0-7.03,2.544,31.073,31.073,0,0,0-5.647,2.87,10.823,10.823,0,0,0-3.083,3.051c-.559.886-.741,1.466-.793,1.445a5.531,5.531,0,0,1,.611-1.554,10.543,10.543,0,0,1,3.031-3.274,30.418,30.418,0,0,1,5.652-3.067,50.377,50.377,0,0,1,7.072-2.72,17.347,17.347,0,0,1,7.968-.477,9.983,9.983,0,0,1,3.683,1.456,3.543,3.543,0,0,1,1.684,3.492,3.69,3.69,0,0,1-2.347,2.7,8.729,8.729,0,0,1-2.927.627,10.391,10.391,0,0,1-4.113-.606c-1.792-.57-4.486-2.492-7.061-5.175-2.611-2.632-5.626-5.673-8.481-8.553a105.854,105.854,0,0,0-7.693-7.413,33.131,33.131,0,0,0-2.709-1.984A7.949,7.949,0,0,1,129.667,127.944Z" transform="translate(-128.218 -127.941)" fill="url(#linear-gradient-13)"/>
        </g>
        <path id="패스_6649" data-name="패스 6649" d="M449.322,151.492v.539H96.3v-.539c0-16.93-16.716-19.4-17.432-19.495l.3-1.062c.179.026,18.32,2.647,18.685,20.013H447.771c.373-17.365,18.506-19.987,18.693-20.013l.291,1.062C466.583,132.023,449.322,134.52,449.322,151.492Z" transform="translate(30.49 532.971)" fill="url(#linear-gradient-14)"/>
        <path id="패스_6650" data-name="패스 6650" d="M74.328,610.84V24.5c17.365-.256,19.987-12.925,20.013-13.056l-1.062-.209c-.1.5-2.564,12.179-19.489,12.179h-.544V611.925h.544c16.925,0,19.391,11.683,19.489,12.179l1.062-.2C94.315,623.77,91.693,611.1,74.328,610.84Z" transform="translate(6.004 30.151)" fill="url(#linear-gradient-15)"/>
        <path id="패스_6651" data-name="패스 6651" d="M152.483,610.84V24.5c-17.365-.256-19.987-12.925-20.013-13.056l1.062-.209c.1.5,2.564,12.179,19.495,12.179h.539V611.925h-.539c-16.93,0-19.4,11.683-19.495,12.179l-1.062-.2C132.5,623.77,135.117,611.1,152.483,610.84Z" transform="translate(373.09 30.151)" fill="url(#linear-gradient-16)"/>
      </g>
    </g>
    <g id="그룹_2734" data-name="그룹 2734" transform="translate(400 5077)">
      <g id="그룹_2698" data-name="그룹 2698" transform="translate(105.12 3.492)">
        <path id="패스_3082" data-name="패스 3082" d="M1066.373,666.554l7.883,211.156h-19.88Z" transform="translate(-1054.376 -666.554)" fill="#fec458"/>
      </g>
      <g id="그룹_2699" data-name="그룹 2699" transform="translate(0.56 0)">
        <path id="패스_3083" data-name="패스 3083" d="M1036.757,894.257l57.508,19.738V667.148a3.333,3.333,0,0,0-3.489-3.153H981.2a3.333,3.333,0,0,0-3.489,3.153v246.7l57.646-19.6A2.194,2.194,0,0,1,1036.757,894.257Z" transform="translate(-977.709 -663.995)" fill="#392f2e"/>
      </g>
      <g id="그룹_2700" data-name="그룹 2700" transform="translate(18.678 45.164)" opacity="0.99">
        <path id="패스_3084" data-name="패스 3084" d="M1070.427,771.076h.935v1.038h-33.126v-1.038h.935a4.013,4.013,0,0,0,3.374-1.4,4.405,4.405,0,0,0,1.09-2.65,6.454,6.454,0,0,0-.519-2.492l-5.088-12.772h-24.3l-5.4,12.772a7.1,7.1,0,0,0-.518,2.543,4.254,4.254,0,0,0,1.141,2.6,4.166,4.166,0,0,0,3.428,1.4h.831v1.038H990.987v-1.038h.935a9.11,9.11,0,0,0,4.776-1.454,11.052,11.052,0,0,0,3.947-4.361l23.986-54.311q4.88-10.279,5.192-13.6h.935l30.842,67.7a11.289,11.289,0,0,0,3.946,4.516A9.047,9.047,0,0,0,1070.427,771.076ZM1015.493,747.4h20.769l-10.073-25.545Z" transform="translate(-990.987 -697.348)" fill="#fff"/>
      </g>
      <g id="그룹_2701" data-name="그룹 2701" transform="translate(17.94 163.432)" opacity="0.99">
        <path id="패스_3085" data-name="패스 3085" d="M1010.546,791.9a7.385,7.385,0,0,1-.622,3,6.6,6.6,0,0,1-4.351,3.729,5.448,5.448,0,0,1-1.726.311,7.771,7.771,0,0,1-4.387-1.279v-.345a5.16,5.16,0,0,0,4.179-1.692,6.6,6.6,0,0,0,.19-7.821,4.072,4.072,0,0,0-3.23-1.364h-2.313v20.2a2.063,2.063,0,0,0,.655,1.536,2.152,2.152,0,0,0,1.556.64h.449v.345h-10.5v-.345h.449a2.089,2.089,0,0,0,1.536-.64,2.218,2.218,0,0,0,.674-1.536v-19.3a1.823,1.823,0,0,0-.656-1.434,2.3,2.3,0,0,0-1.554-.569h-.449v-.345h11.536q4.212,0,6.354,1.8A6.4,6.4,0,0,1,1010.546,791.9Z" transform="translate(-990.446 -784.301)" fill="#fff"/>
        <path id="패스_3086" data-name="패스 3086" d="M1029.927,809.007h.311v.345h-11.017v-.345h.311a1.331,1.331,0,0,0,1.122-.467,1.455,1.455,0,0,0,.363-.88,2.178,2.178,0,0,0-.172-.83l-1.693-4.248h-8.082l-1.8,4.248a2.381,2.381,0,0,0-.172.846,1.4,1.4,0,0,0,.379.864,1.384,1.384,0,0,0,1.141.467h.276v.345h-7.391v-.345h.311a3.04,3.04,0,0,0,1.59-.483,3.667,3.667,0,0,0,1.311-1.452l7.978-18.062a18.3,18.3,0,0,0,1.728-4.525h.31L1026.992,807a3.746,3.746,0,0,0,1.311,1.5A3.007,3.007,0,0,0,1029.927,809.007Zm-18.269-7.873h6.907l-3.35-8.5Z" transform="translate(-985.686 -784.486)" fill="#fff"/>
        <path id="패스_3087" data-name="패스 3087" d="M1023.577,806.085a8.02,8.02,0,0,1,1.071-4.248h.31a4.417,4.417,0,0,0-.034.551,5.816,5.816,0,0,0,1.71,4.163,6.184,6.184,0,0,0,4.68,1.778,5.392,5.392,0,0,0,3.609-1.105,3.516,3.516,0,0,0,1.295-2.8,2.793,2.793,0,0,0-.639-1.8,9.332,9.332,0,0,0-2.125-1.762l-6.009-3.971q-3.35-2.246-3.35-5.526a3.507,3.507,0,0,1,.068-.692,6.168,6.168,0,0,1,2.125-4.384,7.562,7.562,0,0,1,5.128-1.658,39.379,39.379,0,0,1,4.7.345h2.175l-.449,5.076h-.345a3.54,3.54,0,0,0-1.329-2.883,5.416,5.416,0,0,0-3.539-1.089,4.505,4.505,0,0,0-3.9,1.658,2.583,2.583,0,0,0-.621,1.589,2.7,2.7,0,0,0,.311,1.345,6,6,0,0,0,2.107,1.935l6.6,4.283a6.136,6.136,0,0,1,3.107,5.317,6.687,6.687,0,0,1-2.5,5.612,10.521,10.521,0,0,1-6.649,1.951,15.634,15.634,0,0,1-4.334-.57,6.484,6.484,0,0,1-2.919-1.535A4.62,4.62,0,0,1,1023.577,806.085Z" transform="translate(-978.37 -784.43)" fill="#fff"/>
        <path id="패스_3088" data-name="패스 3088" d="M1038.207,806.085a8.034,8.034,0,0,1,1.07-4.248h.311a4.4,4.4,0,0,0-.036.551,5.815,5.815,0,0,0,1.71,4.163,6.186,6.186,0,0,0,4.68,1.778,5.391,5.391,0,0,0,3.609-1.105,3.516,3.516,0,0,0,1.295-2.8,2.793,2.793,0,0,0-.639-1.8,9.271,9.271,0,0,0-2.124-1.762l-6.009-3.971q-3.351-2.246-3.35-5.526a3.5,3.5,0,0,1,.07-.692,6.166,6.166,0,0,1,2.123-4.384,7.564,7.564,0,0,1,5.129-1.658,39.381,39.381,0,0,1,4.7.345h2.176l-.449,5.076h-.346a3.537,3.537,0,0,0-1.329-2.883,5.413,5.413,0,0,0-3.54-1.089,4.5,4.5,0,0,0-3.9,1.658,2.577,2.577,0,0,0-.622,1.589,2.7,2.7,0,0,0,.311,1.345,6.018,6.018,0,0,0,2.107,1.935l6.6,4.283a6.135,6.135,0,0,1,3.108,5.317,6.685,6.685,0,0,1-2.5,5.612,10.516,10.516,0,0,1-6.648,1.951,15.62,15.62,0,0,1-4.334-.57,6.475,6.475,0,0,1-2.919-1.535A4.587,4.587,0,0,1,1038.207,806.085Z" transform="translate(-973.037 -784.43)" fill="#fff"/>
      </g>
      <g id="그룹_2702" data-name="그룹 2702" transform="translate(79.405 40.963)">
        <path id="패스_3089" data-name="패스 3089" d="M1050.02,700.663V702.8h-6.241v6.439h-2.055V702.8h-6.2v-2.133h6.2v-6.476h2.055v6.476Z" transform="translate(-1035.52 -694.187)" fill="#fff" stroke="#fff" stroke-miterlimit="10" stroke-width="1"/>
      </g>
      <g id="그룹_2715" data-name="그룹 2715" transform="translate(35.654 18.211)">
        <g id="그룹_2704" data-name="그룹 2704" transform="translate(2.77 3.324)">
          <g id="그룹_2703" data-name="그룹 2703">
            <path id="패스_3090" data-name="패스 3090" d="M1041.085,696.394l5.223-9.654-5.7,3.724a1.815,1.815,0,0,1-2.8-1.359l-.365-7.746-4.313,6.038a2.913,2.913,0,0,1-5.149-.566l-2.09-7.053-2.092,7.053a2.913,2.913,0,0,1-5.15.566l-4.313-6.038-.366,7.746a1.815,1.815,0,0,1-2.8,1.359l-5.7-3.724,5.223,9.654Z" transform="translate(-1005.476 -679.777)" fill="#fec458"/>
          </g>
        </g>
        <g id="그룹_2706" data-name="그룹 2706" transform="translate(20.892)">
          <g id="그룹_2705" data-name="그룹 2705">
            <path id="패스_3091" data-name="패스 3091" d="M1023.346,679.636a2.294,2.294,0,1,1-2.294-2.3A2.293,2.293,0,0,1,1023.346,679.636Z" transform="translate(-1018.757 -677.341)" fill="#fec458"/>
          </g>
        </g>
        <g id="그룹_2708" data-name="그룹 2708" transform="translate(8.943 1.504)">
          <g id="그룹_2707" data-name="그룹 2707">
            <path id="패스_3092" data-name="패스 3092" d="M1014.589,680.738a2.294,2.294,0,1,1-2.295-2.295A2.295,2.295,0,0,1,1014.589,680.738Z" transform="translate(-1010 -678.443)" fill="#fec458"/>
          </g>
        </g>
        <g id="그룹_2710" data-name="그룹 2710" transform="translate(0 7.042)">
          <g id="그룹_2709" data-name="그룹 2709">
            <path id="패스_3093" data-name="패스 3093" d="M1008.036,684.8a2.3,2.3,0,1,1-2.295-2.3A2.3,2.3,0,0,1,1008.036,684.8Z" transform="translate(-1003.446 -682.502)" fill="#fec458"/>
          </g>
        </g>
        <g id="그룹_2712" data-name="그룹 2712" transform="translate(32.841 1.504)">
          <g id="그룹_2711" data-name="그룹 2711">
            <path id="패스_3094" data-name="패스 3094" d="M1027.514,680.738a2.3,2.3,0,1,0,2.3-2.295A2.295,2.295,0,0,0,1027.514,680.738Z" transform="translate(-1027.514 -678.443)" fill="#fec458"/>
          </g>
        </g>
        <g id="그룹_2714" data-name="그룹 2714" transform="translate(41.782 7.042)">
          <g id="그룹_2713" data-name="그룹 2713">
            <path id="패스_3095" data-name="패스 3095" d="M1034.067,684.8a2.3,2.3,0,1,0,2.3-2.3A2.3,2.3,0,0,0,1034.067,684.8Z" transform="translate(-1034.067 -682.502)" fill="#fec458"/>
          </g>
        </g>
      </g>
      <g id="그룹_2716" data-name="그룹 2716" transform="translate(0 215.613)">
        <path id="패스_3096" data-name="패스 3096" d="M1093.855,846.7l-57.718-20.093L978.419,846.7l-1.12-3.222L1036.137,823l58.838,20.482Z" transform="translate(-977.298 -822.996)" fill="#fec458"/>
      </g>
    </g>
    <g id="그룹_2733" data-name="그룹 2733" transform="translate(614 5077)">
      <g id="그룹_2719" data-name="그룹 2719" transform="translate(105.158 3.485)">
        <path id="패스_3097" data-name="패스 3097" d="M1186.372,666.554l7.868,211.231H1174.4Z" transform="translate(-1174.399 -666.554)" fill="#fec458"/>
      </g>
      <g id="그룹_2720" data-name="그룹 2720" transform="translate(0.559 0)">
        <path id="패스_3098" data-name="패스 3098" d="M1156.788,894.257l57.516,19.738V667.148a3.335,3.335,0,0,0-3.491-3.153H1101.222a3.335,3.335,0,0,0-3.491,3.153v246.7l57.655-19.6A2.194,2.194,0,0,1,1156.788,894.257Z" transform="translate(-1097.731 -663.995)" fill="#a80c10"/>
      </g>
      <g id="그룹_2721" data-name="그룹 2721" transform="translate(17.037 45.715)" opacity="0.99">
        <path id="패스_3099" data-name="패스 3099" d="M1191.4,700.318a6.022,6.022,0,0,0-5.492,3.109,6.544,6.544,0,0,0-.933,3.109v53.481a62.181,62.181,0,0,0,.933,11.711l.311,1.555h-.933l-52.34-49.852v41.145a5.914,5.914,0,0,0,1.866,4.406,6.16,6.16,0,0,0,4.456,1.814h1.969v1.036h-31.4V770.8h1.866a6.287,6.287,0,0,0,4.56-1.814,6.027,6.027,0,0,0,1.867-4.509V710.682a58.223,58.223,0,0,0-.934-11.4l-.207-1.554h.933l52.34,49.852V706.64a6.4,6.4,0,0,0-1.968-4.508,6.18,6.18,0,0,0-4.458-1.814h-1.866v-1.036h31.405v1.036Z" transform="translate(-1109.83 -697.728)" fill="#fff"/>
      </g>
      <g id="그룹_2722" data-name="그룹 2722" transform="translate(17.907 163.468)" opacity="0.99">
        <path id="패스_3100" data-name="패스 3100" d="M1130.53,791.887a7.4,7.4,0,0,1-.62,3,6.588,6.588,0,0,1-4.343,3.722,5.445,5.445,0,0,1-1.724.311,7.755,7.755,0,0,1-4.377-1.276V797.3a5.146,5.146,0,0,0,4.17-1.689,6.579,6.579,0,0,0,.189-7.806,4.062,4.062,0,0,0-3.222-1.362h-2.31V806.6a2.056,2.056,0,0,0,.655,1.533,2.143,2.143,0,0,0,1.551.639h.448v.345h-10.478v-.345h.447a2.091,2.091,0,0,0,1.535-.639,2.22,2.22,0,0,0,.673-1.533V787.337a1.82,1.82,0,0,0-.655-1.431,2.3,2.3,0,0,0-1.553-.568h-.447v-.345h11.512q4.206,0,6.342,1.792A6.381,6.381,0,0,1,1130.53,791.887Z" transform="translate(-1110.469 -784.303)" fill="#fff"/>
        <path id="패스_3101" data-name="패스 3101" d="M1149.9,808.96h.309v.345h-10.995v-.345h.309a1.331,1.331,0,0,0,1.121-.466,1.458,1.458,0,0,0,.361-.878,2.148,2.148,0,0,0-.172-.828l-1.689-4.24h-8.066l-1.792,4.24a2.35,2.35,0,0,0-.173.844,1.4,1.4,0,0,0,.38.862,1.379,1.379,0,0,0,1.137.466h.275v.345h-7.376v-.345h.311a3.029,3.029,0,0,0,1.585-.482,3.675,3.675,0,0,0,1.31-1.449L1134.7,789a18.238,18.238,0,0,0,1.723-4.516h.311l10.237,22.475a3.741,3.741,0,0,0,1.31,1.5A3,3,0,0,0,1149.9,808.96Zm-18.234-7.858h6.894l-3.345-8.48Z" transform="translate(-1105.743 -784.486)" fill="#fff"/>
        <path id="패스_3102" data-name="패스 3102" d="M1143.6,806.044a8.017,8.017,0,0,1,1.068-4.24h.311a4.4,4.4,0,0,0-.034.55,5.8,5.8,0,0,0,1.705,4.155,6.174,6.174,0,0,0,4.671,1.774,5.378,5.378,0,0,0,3.6-1.1,3.51,3.51,0,0,0,1.292-2.79,2.789,2.789,0,0,0-.637-1.794,9.25,9.25,0,0,0-2.12-1.758l-6-3.963q-3.344-2.241-3.343-5.516a3.477,3.477,0,0,1,.069-.69,6.149,6.149,0,0,1,2.12-4.376,7.544,7.544,0,0,1,5.118-1.655,39.3,39.3,0,0,1,4.688.345h2.172l-.448,5.066h-.346a3.529,3.529,0,0,0-1.327-2.878,5.4,5.4,0,0,0-3.533-1.087,4.494,4.494,0,0,0-3.895,1.655,2.572,2.572,0,0,0-.621,1.587,2.694,2.694,0,0,0,.31,1.343,6.006,6.006,0,0,0,2.1,1.931l6.583,4.275a6.123,6.123,0,0,1,3.1,5.307,6.671,6.671,0,0,1-2.5,5.6,10.5,10.5,0,0,1-6.635,1.948,15.589,15.589,0,0,1-4.325-.569,6.47,6.47,0,0,1-2.913-1.532A4.583,4.583,0,0,1,1143.6,806.044Z" transform="translate(-1098.479 -784.431)" fill="#fff"/>
        <path id="패스_3103" data-name="패스 3103" d="M1158.229,806.044a8,8,0,0,1,1.069-4.24h.309a4.418,4.418,0,0,0-.034.55,5.8,5.8,0,0,0,1.706,4.155,6.172,6.172,0,0,0,4.671,1.774,5.381,5.381,0,0,0,3.6-1.1,3.514,3.514,0,0,0,1.293-2.79,2.788,2.788,0,0,0-.638-1.794,9.306,9.306,0,0,0-2.12-1.758l-6-3.963q-3.344-2.241-3.345-5.516a3.486,3.486,0,0,1,.069-.69,6.151,6.151,0,0,1,2.12-4.376,7.544,7.544,0,0,1,5.118-1.655,39.343,39.343,0,0,1,4.689.345h2.171l-.448,5.066h-.345a3.533,3.533,0,0,0-1.326-2.878,5.407,5.407,0,0,0-3.534-1.087,4.494,4.494,0,0,0-3.9,1.655,2.569,2.569,0,0,0-.62,1.587,2.7,2.7,0,0,0,.31,1.343,5.981,5.981,0,0,0,2.1,1.931l6.582,4.275a6.123,6.123,0,0,1,3.1,5.307,6.672,6.672,0,0,1-2.5,5.6,10.493,10.493,0,0,1-6.635,1.948,15.6,15.6,0,0,1-4.325-.569,6.47,6.47,0,0,1-2.913-1.532A4.612,4.612,0,0,1,1158.229,806.044Z" transform="translate(-1093.185 -784.431)" fill="#fff"/>
      </g>
      <g id="그룹_2723" data-name="그룹 2723" transform="translate(0 215.679)">
        <path id="패스_3104" data-name="패스 3104" d="M1213.891,846.655,1156.166,826.6l-57.725,20.055-1.12-3.216L1156.166,823l58.845,20.443Z" transform="translate(-1097.32 -822.996)" fill="#fec458"/>
      </g>
    </g>
    <g id="그룹_2732" data-name="그룹 2732" transform="translate(827 5077)">
      <g id="그룹_2726" data-name="그룹 2726" transform="translate(105.158 3.485)">
        <path id="패스_3105" data-name="패스 3105" d="M1294.555,666.554l7.869,211.231h-19.842Z" transform="translate(-1282.581 -666.554)" fill="#fec458"/>
      </g>
      <g id="그룹_2727" data-name="그룹 2727" transform="translate(0.559 0)">
        <path id="패스_3106" data-name="패스 3106" d="M1264.97,894.257,1322.486,914V667.148A3.334,3.334,0,0,0,1319,664H1209.4a3.334,3.334,0,0,0-3.491,3.153v246.7l57.654-19.6A2.193,2.193,0,0,1,1264.97,894.257Z" transform="translate(-1205.914 -663.995)" fill="#244472"/>
      </g>
      <g id="그룹_2728" data-name="그룹 2728" transform="translate(23.968 48.06)" opacity="0.99">
        <path id="패스_3107" data-name="패스 3107" d="M1257.755,772.235a41.132,41.132,0,0,1-14.561-2.435,28.351,28.351,0,0,1-10.935-7.2,32.1,32.1,0,0,1-6.841-11.763,50.237,50.237,0,0,1-2.385-16.222,38.315,38.315,0,0,1,2.592-14.354,32.568,32.568,0,0,1,7.2-11.09,32.081,32.081,0,0,1,11.038-7.151,38.32,38.32,0,0,1,14.2-2.539,36.939,36.939,0,0,1,13.888,2.539,32.163,32.163,0,0,1,10.883,7.1,31.829,31.829,0,0,1,7.1,11.038,38.721,38.721,0,0,1,2.54,14.251q0,12.645-4.871,21.092a32.2,32.2,0,0,1-12.852,12.7l.311.622q6.841,14.2,13.474,14.2a12.443,12.443,0,0,0,3.057-.311,5.815,5.815,0,0,0,2.124-1.036,8.114,8.114,0,0,0,1.709-1.866q.778-1.142,1.71-2.7a1.112,1.112,0,0,1,.933-.674,1.857,1.857,0,0,1,1.14.26,2.194,2.194,0,0,1,.829.933,1.314,1.314,0,0,1,0,1.243,44.859,44.859,0,0,1-2.228,4.458,27.513,27.513,0,0,1-3.368,4.716,17.985,17.985,0,0,1-4.613,3.73,11.652,11.652,0,0,1-5.856,1.5,10.023,10.023,0,0,1-6.322-2.28,25.771,25.771,0,0,1-5.235-5.65,45.337,45.337,0,0,1-4.041-7.151q-1.712-3.783-2.85-6.788A37.767,37.767,0,0,1,1257.755,772.235Zm-2.9-21.661a16.753,16.753,0,0,1,8.188,2.383q4.249,2.386,7.981,8.81a31.51,31.51,0,0,0,6.063-11.349,48.137,48.137,0,0,0,2.125-14.458,63.953,63.953,0,0,0-1.088-11.816,34.289,34.289,0,0,0-3.575-10.312,20.348,20.348,0,0,0-6.634-7.256,18.006,18.006,0,0,0-10.157-2.746,16.75,16.75,0,0,0-9.691,2.8,21.945,21.945,0,0,0-6.684,7.308,35.5,35.5,0,0,0-3.835,10.26,55,55,0,0,0-1.245,11.659,70.744,70.744,0,0,0,1.141,12.9,28.736,28.736,0,0,0,4.145,10.728,15.616,15.616,0,0,1,1.711-3.264,12.317,12.317,0,0,1,2.694-2.851,13.618,13.618,0,0,1,3.783-2.022A15.137,15.137,0,0,1,1254.853,750.574Zm3.318,17.308a16.977,16.977,0,0,0,5.6-.933,58.426,58.426,0,0,0-5.441-9.172,7.21,7.21,0,0,0-5.856-3.161,5.59,5.59,0,0,0-3.213.985,11.964,11.964,0,0,0-2.488,2.228,9.84,9.84,0,0,0-1.556,2.487,5.7,5.7,0,0,0-.517,1.659q0,.521,1.192,1.5a17.2,17.2,0,0,0,3.109,1.969,25.952,25.952,0,0,0,4.3,1.71A16.654,16.654,0,0,0,1258.171,767.882Z" transform="translate(-1223.034 -699.479)" fill="#fff"/>
      </g>
      <g id="그룹_2729" data-name="그룹 2729" transform="translate(17.905 163.468)" opacity="0.99">
        <path id="패스_3108" data-name="패스 3108" d="M1238.713,791.887a7.376,7.376,0,0,1-.621,3,6.586,6.586,0,0,1-4.343,3.722,5.444,5.444,0,0,1-1.723.311,7.759,7.759,0,0,1-4.379-1.276V797.3a5.147,5.147,0,0,0,4.171-1.689,6.584,6.584,0,0,0,.189-7.806,4.062,4.062,0,0,0-3.223-1.362h-2.309V806.6a2.056,2.056,0,0,0,.655,1.533,2.142,2.142,0,0,0,1.551.639h.448v.345h-10.48v-.345h.448a2.092,2.092,0,0,0,1.535-.639,2.213,2.213,0,0,0,.671-1.533V787.337a1.816,1.816,0,0,0-.655-1.431,2.292,2.292,0,0,0-1.551-.568h-.448v-.345h11.513q4.2,0,6.342,1.792A6.386,6.386,0,0,1,1238.713,791.887Z" transform="translate(-1218.651 -784.303)" fill="#fff"/>
        <path id="패스_3109" data-name="패스 3109" d="M1258.081,808.96h.311v.345h-11v-.345h.31a1.328,1.328,0,0,0,1.12-.466,1.451,1.451,0,0,0,.362-.878,2.146,2.146,0,0,0-.172-.828l-1.69-4.24h-8.066l-1.791,4.24a2.35,2.35,0,0,0-.173.844,1.4,1.4,0,0,0,.379.862,1.382,1.382,0,0,0,1.139.466h.275v.345h-7.376v-.345h.311a3.033,3.033,0,0,0,1.585-.482,3.673,3.673,0,0,0,1.31-1.449L1242.879,789a18.261,18.261,0,0,0,1.724-4.516h.309l10.239,22.475a3.739,3.739,0,0,0,1.309,1.5A3,3,0,0,0,1258.081,808.96Zm-18.234-7.858h6.894l-3.343-8.48Z" transform="translate(-1213.924 -784.486)" fill="#fff"/>
        <path id="패스_3110" data-name="패스 3110" d="M1251.782,806.044a8.017,8.017,0,0,1,1.069-4.24h.311a4.136,4.136,0,0,0-.035.55,5.8,5.8,0,0,0,1.706,4.155,6.174,6.174,0,0,0,4.671,1.774,5.381,5.381,0,0,0,3.6-1.1,3.51,3.51,0,0,0,1.292-2.79,2.789,2.789,0,0,0-.637-1.794,9.313,9.313,0,0,0-2.121-1.758l-6-3.963q-3.344-2.241-3.343-5.516a3.4,3.4,0,0,1,.069-.69,6.154,6.154,0,0,1,2.119-4.376,7.548,7.548,0,0,1,5.118-1.655,39.324,39.324,0,0,1,4.689.345h2.172l-.449,5.066h-.345a3.534,3.534,0,0,0-1.326-2.878,5.407,5.407,0,0,0-3.533-1.087,4.5,4.5,0,0,0-3.9,1.655,2.578,2.578,0,0,0-.62,1.587,2.694,2.694,0,0,0,.31,1.343,5.993,5.993,0,0,0,2.1,1.931l6.583,4.275a6.126,6.126,0,0,1,3.1,5.307,6.676,6.676,0,0,1-2.5,5.6,10.5,10.5,0,0,1-6.635,1.948,15.607,15.607,0,0,1-4.327-.569,6.467,6.467,0,0,1-2.912-1.532A4.578,4.578,0,0,1,1251.782,806.044Z" transform="translate(-1206.661 -784.431)" fill="#fff"/>
        <path id="패스_3111" data-name="패스 3111" d="M1266.412,806.044a8.017,8.017,0,0,1,1.068-4.24h.311a4.4,4.4,0,0,0-.034.55,5.809,5.809,0,0,0,1.7,4.155,6.174,6.174,0,0,0,4.671,1.774,5.378,5.378,0,0,0,3.6-1.1,3.51,3.51,0,0,0,1.292-2.79,2.789,2.789,0,0,0-.637-1.794,9.251,9.251,0,0,0-2.12-1.758l-6-3.963q-3.344-2.241-3.343-5.516a3.5,3.5,0,0,1,.069-.69,6.151,6.151,0,0,1,2.12-4.376,7.543,7.543,0,0,1,5.118-1.655,39.3,39.3,0,0,1,4.688.345h2.172l-.448,5.066h-.346a3.53,3.53,0,0,0-1.327-2.878,5.4,5.4,0,0,0-3.533-1.087,4.494,4.494,0,0,0-3.9,1.655,2.573,2.573,0,0,0-.621,1.587,2.694,2.694,0,0,0,.31,1.343,6.006,6.006,0,0,0,2.1,1.931l6.583,4.275a6.122,6.122,0,0,1,3.1,5.307,6.671,6.671,0,0,1-2.5,5.6,10.5,10.5,0,0,1-6.635,1.948,15.591,15.591,0,0,1-4.325-.569,6.47,6.47,0,0,1-2.913-1.532A4.58,4.58,0,0,1,1266.412,806.044Z" transform="translate(-1201.367 -784.431)" fill="#fff"/>
      </g>
      <g id="그룹_2730" data-name="그룹 2730" transform="translate(0 215.679)">
        <path id="패스_3112" data-name="패스 3112" d="M1322.074,846.655,1264.349,826.6l-57.725,20.055-1.12-3.216L1264.349,823l58.845,20.443Z" transform="translate(-1205.503 -822.996)" fill="#fec458"/>
      </g>
    </g>
    <text id="노트_패스" data-name="노트 패스" transform="translate(677 5060)" fill="#fff" font-size="24" font-family="AppleSDGothicNeo-Bold, Apple SD Gothic Neo" font-weight="700"><tspan x="-44.854" y="0">노트</tspan><tspan y="0" font-family="Helvetica-Bold, Helvetica"> </tspan><tspan y="0">패스</tspan></text>
    <text id="올인원_패스" data-name="올인원 패스" transform="translate(463 5060)" fill="#fff" font-size="24" font-family="AppleSDGothicNeo-Bold, Apple SD Gothic Neo" font-weight="700"><tspan x="-55.234" y="0">올인원</tspan><tspan y="0" font-family="Helvetica-Bold, Helvetica"> </tspan><tspan y="0">패스</tspan></text>
    <text id="연습문제_Q_A_패스" data-name="연습문제, Q&amp;A 패스" transform="translate(890 5060)" fill="#fff" font-size="24" font-family="AppleSDGothicNeo-Bold, Apple SD Gothic Neo" font-weight="700"><tspan x="-98.509" y="0">연습문제</tspan><tspan y="0" font-family="Helvetica-Bold, Helvetica">, Q&amp;A </tspan><tspan y="0">패스</tspan></text>
    <text id="노트_서비스_한_가지_이용_가능" data-name="노트 서비스
한 가지 이용 가능" transform="translate(674 5373)" fill="#fff" font-size="18" font-family="AppleSDGothicNeo-Regular, Apple SD Gothic Neo"><tspan x="-41.425" y="0">노트</tspan><tspan y="0" font-family="Helvetica"> </tspan><tspan y="0">서비스</tspan><tspan y="0" font-family="Helvetica"></tspan><tspan x="-61.996" y="24">한</tspan><tspan y="24" font-family="Helvetica"> </tspan><tspan y="24">가지</tspan><tspan y="24" font-family="Helvetica"> </tspan><tspan y="24">이용</tspan><tspan y="24" font-family="Helvetica"> </tspan><tspan y="24">가능</tspan></text>
    <text id="노트_연습문제_Q_A_모든_서비스_이용가능" data-name="노트, 연습문제, Q&amp;A 
모든 서비스 이용가능" transform="translate(463 5373)" fill="#fff" font-size="18" font-family="AppleSDGothicNeo-Regular, Apple SD Gothic Neo"><tspan x="-77.727" y="0">노트</tspan><tspan y="0" font-family="Helvetica">, </tspan><tspan y="0">연습문제</tspan><tspan y="0" font-family="Helvetica">, Q&amp;A </tspan><tspan x="-75.066" y="24">모든</tspan><tspan y="24" font-family="Helvetica"> </tspan><tspan y="24">서비스</tspan><tspan y="24" font-family="Helvetica"> </tspan><tspan y="24">이용가능</tspan></text>
    <text id="연습문제_Q_A_두_가지서비스_이용_가능" data-name="연습문제, Q&amp;A 
두 가지서비스 이용 가능" transform="translate(890 5373)" fill="#fff" font-size="18" font-family="AppleSDGothicNeo-Regular, Apple SD Gothic Neo"><tspan x="-57.156" y="0">연습문제</tspan><tspan y="0" font-family="Helvetica">, Q&amp;A </tspan><tspan x="-85.351" y="24">두</tspan><tspan y="24" font-family="Helvetica"> </tspan><tspan y="24">가지서비스</tspan><tspan y="24" font-family="Helvetica"> </tspan><tspan y="24">이용</tspan><tspan y="24" font-family="Helvetica"> </tspan><tspan y="24">가능</tspan></text>
  </g>
</svg>
