<svg xmlns="http://www.w3.org/2000/svg" width="32" height="64" viewBox="0 0 32 64"><defs><style>.a{fill:none;}.b{fill:#fec458;}.c{fill:#392f2e;}.d{opacity:0.99;}.e,.f{fill:#fff;}.f{stroke:#fff;stroke-miterlimit:10;}</style></defs><rect class="a" width="32" height="64"/><g transform="translate(0 0.001)"><g transform="translate(26.362 0.875)"><path class="b" d="M1057.383,666.554l1.976,53.263h-4.983Z" transform="translate(-1054.376 -666.554)"/></g><g transform="translate(0.14)"><path class="c" d="M992.516,722.02l14.421,4.974v-62.2a.838.838,0,0,0-.875-.794H978.584a.838.838,0,0,0-.875.794v62.169l14.455-4.938A.548.548,0,0,1,992.516,722.02Z" transform="translate(-977.709 -663.995)"/></g><g class="d" transform="translate(4.682 11.407)"><path class="e" d="M1010.9,715.828h.234v.26h-8.3v-.26h.234a1.006,1.006,0,0,0,.846-.351,1.1,1.1,0,0,0,.273-.664,1.618,1.618,0,0,0-.13-.625l-1.275-3.2h-6.091l-1.353,3.2a1.778,1.778,0,0,0-.13.637,1.066,1.066,0,0,0,.286.651,1.044,1.044,0,0,0,.859.351h.208v.26h-5.57v-.26h.234a2.284,2.284,0,0,0,1.2-.365,2.77,2.77,0,0,0,.989-1.093l6.012-13.613a13.766,13.766,0,0,0,1.3-3.409h.234l7.73,16.97a2.83,2.83,0,0,0,.989,1.132A2.268,2.268,0,0,0,1010.9,715.828Zm-13.769-5.935h5.206l-2.525-6.4Z" transform="translate(-990.987 -697.348)"/></g><g class="d" transform="translate(4.497 41.209)"><path class="e" d="M995.484,786.724a1.853,1.853,0,0,1-.156.753,1.654,1.654,0,0,1-1.091.935,1.368,1.368,0,0,1-.433.078,1.948,1.948,0,0,1-1.1-.32v-.087a1.294,1.294,0,0,0,1.048-.424,1.654,1.654,0,0,0,.048-1.96,1.02,1.02,0,0,0-.81-.342h-.58v5.064a.518.518,0,0,0,.164.385.54.54,0,0,0,.39.16h.113v.087h-2.632v-.087h.112a.524.524,0,0,0,.385-.16.556.556,0,0,0,.169-.385v-4.839a.457.457,0,0,0-.164-.359.576.576,0,0,0-.39-.143h-.112v-.087h2.891a2.429,2.429,0,0,1,1.593.45A1.6,1.6,0,0,1,995.484,786.724Z" transform="translate(-990.446 -784.82)"/><path class="e" d="M1010.128,790.632h.078v.087h-2.761v-.087h.078a.334.334,0,0,0,.281-.117.365.365,0,0,0,.091-.221.544.544,0,0,0-.043-.208l-.424-1.065H1005.4l-.45,1.065a.6.6,0,0,0-.043.212.352.352,0,0,0,.1.216.347.347,0,0,0,.286.117h.069v.087h-1.853v-.087h.078a.762.762,0,0,0,.4-.121.92.92,0,0,0,.329-.364l2-4.527a4.591,4.591,0,0,0,.433-1.134h.078l2.571,5.644a.939.939,0,0,0,.329.377A.754.754,0,0,0,1010.128,790.632Zm-4.579-1.973h1.731l-.84-2.13Z" transform="translate(-999.039 -784.486)"/><path class="e" d="M1023.577,790.014a2.01,2.01,0,0,1,.268-1.065h.078a1.111,1.111,0,0,0-.009.138,1.458,1.458,0,0,0,.429,1.043,1.55,1.55,0,0,0,1.173.446,1.351,1.351,0,0,0,.9-.277.881.881,0,0,0,.325-.7.7.7,0,0,0-.16-.45,2.337,2.337,0,0,0-.532-.442l-1.506-1a1.639,1.639,0,0,1-.84-1.385.88.88,0,0,1,.017-.173,1.547,1.547,0,0,1,.533-1.1,1.9,1.9,0,0,1,1.285-.416,9.875,9.875,0,0,1,1.178.087h.545l-.113,1.272h-.087a.887.887,0,0,0-.333-.723,1.358,1.358,0,0,0-.887-.273,1.129,1.129,0,0,0-.979.416.648.648,0,0,0-.156.4.676.676,0,0,0,.078.337,1.507,1.507,0,0,0,.528.485l1.653,1.074a1.538,1.538,0,0,1,.779,1.333,1.676,1.676,0,0,1-.627,1.407,2.637,2.637,0,0,1-1.667.489,3.917,3.917,0,0,1-1.086-.143,1.624,1.624,0,0,1-.732-.385A1.157,1.157,0,0,1,1023.577,790.014Z" transform="translate(-1012.246 -784.587)"/><path class="e" d="M1038.207,790.014a2.015,2.015,0,0,1,.268-1.065h.078a1.1,1.1,0,0,0-.009.138,1.458,1.458,0,0,0,.428,1.043,1.551,1.551,0,0,0,1.173.446,1.351,1.351,0,0,0,.9-.277.881.881,0,0,0,.325-.7.7.7,0,0,0-.16-.45,2.325,2.325,0,0,0-.533-.442l-1.506-1a1.639,1.639,0,0,1-.84-1.385.889.889,0,0,1,.017-.173,1.546,1.546,0,0,1,.532-1.1,1.9,1.9,0,0,1,1.286-.416,9.873,9.873,0,0,1,1.177.087h.545l-.112,1.272h-.087a.886.886,0,0,0-.333-.723,1.357,1.357,0,0,0-.887-.273,1.128,1.128,0,0,0-.978.416.646.646,0,0,0-.156.4.676.676,0,0,0,.078.337,1.508,1.508,0,0,0,.528.485l1.653,1.074a1.538,1.538,0,0,1,.779,1.333,1.676,1.676,0,0,1-.628,1.407,2.636,2.636,0,0,1-1.666.489A3.915,3.915,0,0,1,1039,790.8a1.623,1.623,0,0,1-.731-.385A1.151,1.151,0,0,1,1038.207,790.014Z" transform="translate(-1021.872 -784.587)"/></g><g transform="translate(19.912 10.326)"><path class="f" d="M1039.155,695.81v.535h-1.564v1.614h-.515v-1.614h-1.555v-.535h1.555v-1.623h.515v1.623Z" transform="translate(-1035.52 -694.187)"/></g><g transform="translate(8.943 4.564)"><g transform="translate(0.694 0.833)"><path class="b" d="M1014.4,683.942l1.309-2.42-1.428.933a.455.455,0,0,1-.7-.341l-.092-1.942-1.081,1.513a.73.73,0,0,1-1.291-.142l-.524-1.768-.524,1.768a.73.73,0,0,1-1.291.142l-1.081-1.513-.092,1.942a.455.455,0,0,1-.7.341l-1.427-.933,1.309,2.42Z" transform="translate(-1005.476 -679.777)"/></g><g transform="translate(5.237)"><path class="b" d="M1019.907,677.916a.575.575,0,1,1-.575-.575A.575.575,0,0,1,1019.907,677.916Z" transform="translate(-1018.757 -677.341)"/></g><g transform="translate(2.242 0.377)"><path class="b" d="M1011.15,679.018a.575.575,0,1,1-.575-.575A.575.575,0,0,1,1011.15,679.018Z" transform="translate(-1010 -678.443)"/></g><g transform="translate(0 1.765)"><path class="b" d="M1004.6,683.077a.575.575,0,1,1-.575-.575A.575.575,0,0,1,1004.6,683.077Z" transform="translate(-1003.446 -682.502)"/></g><g transform="translate(8.232 0.377)"><path class="b" d="M1027.514,679.018a.575.575,0,1,0,.575-.575A.575.575,0,0,0,1027.514,679.018Z" transform="translate(-1027.514 -678.443)"/></g><g transform="translate(10.473 1.765)"><path class="b" d="M1034.067,683.077a.575.575,0,1,0,.575-.575A.575.575,0,0,0,1034.067,683.077Z" transform="translate(-1034.067 -682.502)"/></g></g><g transform="translate(0 54.38)"><path class="b" d="M1006.526,828.938,992.053,823.9l-14.474,5.036-.281-.808L992.053,823l14.754,5.134Z" transform="translate(-977.298 -822.996)"/></g></g></svg>