<svg id="강의_없을_때_휘장_강의_담기X" data-name="강의 없을 때 휘장_강의 담기X" xmlns="http://www.w3.org/2000/svg" width="78" height="42" viewBox="0 0 78 42">
  <rect id="사각형_1032" data-name="사각형 1032" width="78" height="42" transform="translate(0 0)" fill="none"/>
  <g id="그룹_3342" data-name="그룹 3342" transform="translate(-1204.951 -779.039)">
    <g id="그룹_3337" data-name="그룹 3337" transform="translate(1270.639 781.036)">
      <path id="패스_6680" data-name="패스 6680" d="M1290.011,666.554,1294.894,696h-12.312Z" transform="translate(-1282.582 -666.554)" fill="#fec458"/>
    </g>
    <g id="그룹_3338" data-name="그룹 3338" transform="translate(1205.85 663.995)">
      <path id="패스_6681" data-name="패스 6681" d="M1242.5,807.367l35.632,12.29V781a2.069,2.069,0,0,0-2.162-1.963h-67.894a2.07,2.07,0,0,0-2.163,1.963v38.566l35.717-12.2A1.353,1.353,0,0,1,1242.5,807.367Z" transform="translate(-1205.914 -663.995)" fill="#6d6d6d"/>
    </g>
    <g id="그룹_3341" data-name="그룹 3341" transform="translate(1205.504 798.36)">
      <path id="패스_6687" data-name="패스 6687" d="M1277.721,837.676l-35.762-12.444L1206.2,837.676l-.694-2L1241.959,823l36.456,12.685Z" transform="translate(-1205.504 -822.996)" fill="#fec458"/>
    </g>
  </g>
</svg>
