<svg xmlns="http://www.w3.org/2000/svg" width="32" height="64" viewBox="0 0 32 64"><defs><style>.a{fill:none;}.b{fill:#fec458;}.c{fill:#a80c10;}.d{opacity:0.99;}.e{fill:#fff;}</style></defs><rect class="a" width="32" height="64"/><g transform="translate(26.361 0.875)"><path class="b" d="M1177.406,666.554l1.976,53.261H1174.4Z" transform="translate(-1174.399 -666.554)"/></g><g transform="translate(0.14)"><path class="c" d="M1112.538,722.018l14.421,4.974v-62.2a.838.838,0,0,0-.875-.794h-27.477a.838.838,0,0,0-.875.794v62.167l14.455-4.938A.547.547,0,0,1,1112.538,722.018Z" transform="translate(-1097.731 -663.995)"/></g><g class="d" transform="translate(4.278 11.537)"><path class="e" d="M1130.313,698.378a1.512,1.512,0,0,0-1.379.781,1.644,1.644,0,0,0-.234.781v13.43a15.617,15.617,0,0,0,.234,2.941l.078.391h-.234l-13.144-12.519v10.332a1.486,1.486,0,0,0,.469,1.106,1.547,1.547,0,0,0,1.119.456h.495v.26h-7.886v-.26h.469a1.579,1.579,0,0,0,1.145-.456,1.513,1.513,0,0,0,.469-1.132V700.981a14.622,14.622,0,0,0-.235-2.863l-.052-.39h.234L1125,710.247V699.966a1.609,1.609,0,0,0-.494-1.132,1.551,1.551,0,0,0-1.119-.456h-.468v-.26h7.886v.26Z" transform="translate(-1109.83 -697.728)"/></g><g class="d" transform="translate(4.497 41.208)"><path class="e" d="M1115.507,786.724a1.855,1.855,0,0,1-.156.753,1.654,1.654,0,0,1-1.09.935,1.367,1.367,0,0,1-.433.078,1.948,1.948,0,0,1-1.1-.32v-.087a1.292,1.292,0,0,0,1.047-.424,1.652,1.652,0,0,0,.047-1.96,1.02,1.02,0,0,0-.809-.342h-.58v5.064a.516.516,0,0,0,.164.385.539.539,0,0,0,.39.16h.113v.087h-2.631v-.087h.112a.525.525,0,0,0,.385-.16.557.557,0,0,0,.169-.385v-4.839a.457.457,0,0,0-.164-.359.576.576,0,0,0-.39-.143h-.112v-.086h2.891a2.427,2.427,0,0,1,1.593.45A1.6,1.6,0,0,1,1115.507,786.724Z" transform="translate(-1110.469 -784.82)"/><path class="e" d="M1130.151,790.632h.078v.087h-2.761v-.087h.078a.334.334,0,0,0,.281-.117.366.366,0,0,0,.091-.221.54.54,0,0,0-.043-.208l-.424-1.065h-2.026l-.45,1.065a.59.59,0,0,0-.043.212.352.352,0,0,0,.1.216.346.346,0,0,0,.286.117h.069v.087h-1.852v-.087h.078a.76.76,0,0,0,.4-.121.922.922,0,0,0,.329-.364l2-4.527a4.579,4.579,0,0,0,.433-1.134h.078l2.571,5.644a.941.941,0,0,0,.329.377A.753.753,0,0,0,1130.151,790.632Zm-4.579-1.973h1.731l-.84-2.13Z" transform="translate(-1119.063 -784.486)"/><path class="e" d="M1143.6,790.014a2.014,2.014,0,0,1,.268-1.065h.078a1.121,1.121,0,0,0-.009.138,1.457,1.457,0,0,0,.428,1.043,1.55,1.55,0,0,0,1.173.446,1.35,1.35,0,0,0,.9-.277.881.881,0,0,0,.325-.7.7.7,0,0,0-.16-.45,2.324,2.324,0,0,0-.532-.442l-1.506-1a1.639,1.639,0,0,1-.84-1.385.871.871,0,0,1,.018-.173,1.544,1.544,0,0,1,.532-1.1,1.894,1.894,0,0,1,1.285-.416,9.866,9.866,0,0,1,1.177.086h.546l-.113,1.272h-.087a.886.886,0,0,0-.333-.723,1.358,1.358,0,0,0-.887-.273,1.128,1.128,0,0,0-.978.416.645.645,0,0,0-.156.4.676.676,0,0,0,.078.337,1.508,1.508,0,0,0,.528.485l1.653,1.074a1.538,1.538,0,0,1,.779,1.333,1.675,1.675,0,0,1-.627,1.407,2.636,2.636,0,0,1-1.666.489,3.915,3.915,0,0,1-1.086-.143,1.627,1.627,0,0,1-.732-.385A1.152,1.152,0,0,1,1143.6,790.014Z" transform="translate(-1132.269 -784.587)"/><path class="e" d="M1158.229,790.014a2.009,2.009,0,0,1,.269-1.065h.078a1.121,1.121,0,0,0-.009.138,1.458,1.458,0,0,0,.429,1.043,1.55,1.55,0,0,0,1.173.446,1.351,1.351,0,0,0,.9-.277.882.882,0,0,0,.324-.7.7.7,0,0,0-.16-.45,2.338,2.338,0,0,0-.532-.442l-1.506-1a1.639,1.639,0,0,1-.84-1.385.871.871,0,0,1,.017-.173,1.544,1.544,0,0,1,.532-1.1,1.894,1.894,0,0,1,1.285-.416,9.875,9.875,0,0,1,1.177.086h.545L1161.8,786h-.087a.887.887,0,0,0-.333-.723,1.358,1.358,0,0,0-.887-.273,1.128,1.128,0,0,0-.978.416.645.645,0,0,0-.156.4.678.678,0,0,0,.078.337,1.5,1.5,0,0,0,.528.485l1.653,1.074a1.538,1.538,0,0,1,.779,1.333,1.675,1.675,0,0,1-.628,1.407,2.635,2.635,0,0,1-1.666.489,3.918,3.918,0,0,1-1.086-.143,1.626,1.626,0,0,1-.732-.385A1.157,1.157,0,0,1,1158.229,790.014Z" transform="translate(-1141.895 -784.587)"/></g><g transform="translate(0 54.378)"><path class="b" d="M1126.547,828.937l-14.473-5.036-14.473,5.036-.281-.808L1112.074,823l14.754,5.134Z" transform="translate(-1097.32 -822.996)"/></g></svg>