<svg xmlns="http://www.w3.org/2000/svg" width="32" height="64" viewBox="0 0 32 64"><defs><style>.a{fill:none;}.b{fill:#fec458;}.c{fill:#244472;}.d{opacity:0.99;}.e{fill:#fff;}</style></defs><rect class="a" width="32" height="64"/><g transform="translate(26.278 0.889)"><path class="b" d="M1285.636,666.554l2.008,53.111h-5.062Z" transform="translate(-1282.582 -666.554)"/></g><g transform="translate(0.143)"><path class="c" d="M1220.7,722.023,1235.1,727V664.789a.837.837,0,0,0-.874-.794h-27.442a.837.837,0,0,0-.874.794v62.171l14.437-4.938A.545.545,0,0,1,1220.7,722.023Z" transform="translate(-1205.914 -663.995)"/></g><g class="d" transform="translate(5.839 12.021)"><path class="e" d="M1231.892,718.041a10.493,10.493,0,0,1-3.715-.621,7.235,7.235,0,0,1-2.79-1.838,8.187,8.187,0,0,1-1.745-3,12.815,12.815,0,0,1-.608-4.138,9.775,9.775,0,0,1,.661-3.662,8.313,8.313,0,0,1,1.838-2.829,8.187,8.187,0,0,1,2.816-1.824,9.776,9.776,0,0,1,3.623-.648,9.424,9.424,0,0,1,3.543.648,8.208,8.208,0,0,1,2.777,1.811,8.118,8.118,0,0,1,1.811,2.816,9.879,9.879,0,0,1,.648,3.636,10.639,10.639,0,0,1-1.243,5.381,8.216,8.216,0,0,1-3.279,3.239l.079.159q1.745,3.622,3.438,3.622a3.175,3.175,0,0,0,.78-.079,1.486,1.486,0,0,0,.542-.264,2.069,2.069,0,0,0,.436-.476q.2-.291.437-.688a.283.283,0,0,1,.238-.172.473.473,0,0,1,.291.066.561.561,0,0,1,.212.238.337.337,0,0,1,0,.317,11.493,11.493,0,0,1-.569,1.137,7.013,7.013,0,0,1-.859,1.2,4.593,4.593,0,0,1-1.177.952,2.971,2.971,0,0,1-1.494.384,2.558,2.558,0,0,1-1.613-.582,6.575,6.575,0,0,1-1.336-1.442,11.556,11.556,0,0,1-1.031-1.824q-.437-.965-.727-1.732A9.628,9.628,0,0,1,1231.892,718.041Zm-.74-5.526a4.273,4.273,0,0,1,2.089.608,5.85,5.85,0,0,1,2.036,2.248,8.037,8.037,0,0,0,1.547-2.9,12.28,12.28,0,0,0,.542-3.688,16.317,16.317,0,0,0-.278-3.014,8.742,8.742,0,0,0-.912-2.631,5.2,5.2,0,0,0-1.692-1.851,4.594,4.594,0,0,0-2.591-.7,4.273,4.273,0,0,0-2.472.714,5.6,5.6,0,0,0-1.705,1.864,9.061,9.061,0,0,0-.978,2.618,14.034,14.034,0,0,0-.318,2.975,18.061,18.061,0,0,0,.291,3.292,7.335,7.335,0,0,0,1.058,2.737,3.982,3.982,0,0,1,.436-.833,3.141,3.141,0,0,1,.687-.727,3.471,3.471,0,0,1,.965-.516A3.861,3.861,0,0,1,1231.152,712.515Zm.846,4.416a4.334,4.334,0,0,0,1.428-.238,14.906,14.906,0,0,0-1.388-2.34,1.839,1.839,0,0,0-1.494-.806,1.426,1.426,0,0,0-.82.251,3.047,3.047,0,0,0-.635.568,2.509,2.509,0,0,0-.4.635,1.454,1.454,0,0,0-.132.423q0,.133.3.384a4.39,4.39,0,0,0,.793.5,6.607,6.607,0,0,0,1.1.436A4.25,4.25,0,0,0,1232,716.93Z" transform="translate(-1223.034 -699.479)"/></g><g class="d" transform="translate(4.568 41.138)"><path class="e" d="M1223.769,786.752a1.883,1.883,0,0,1-.159.765,1.68,1.68,0,0,1-1.108.949,1.389,1.389,0,0,1-.44.079,1.98,1.98,0,0,1-1.117-.326v-.088a1.313,1.313,0,0,0,1.064-.431,1.68,1.68,0,0,0,.048-1.992,1.037,1.037,0,0,0-.823-.347h-.589v5.144a.525.525,0,0,0,.167.391.547.547,0,0,0,.4.163h.115v.088h-2.674v-.088h.114a.533.533,0,0,0,.392-.163.564.564,0,0,0,.171-.391v-4.916a.463.463,0,0,0-.167-.365.585.585,0,0,0-.4-.145h-.114v-.088h2.938a2.468,2.468,0,0,1,1.618.457A1.63,1.63,0,0,1,1223.769,786.752Z" transform="translate(-1218.651 -784.817)"/><path class="e" d="M1238.439,790.73h.079v.088h-2.805v-.088h.079a.339.339,0,0,0,.286-.119.37.37,0,0,0,.093-.224.547.547,0,0,0-.044-.211l-.431-1.082h-2.058l-.457,1.082a.6.6,0,0,0-.044.215.358.358,0,0,0,.1.22.352.352,0,0,0,.291.119h.07v.088h-1.882v-.088h.079a.773.773,0,0,0,.4-.123.937.937,0,0,0,.334-.37l2.031-4.6a4.653,4.653,0,0,0,.44-1.152h.079l2.612,5.734a.956.956,0,0,0,.334.383A.767.767,0,0,0,1238.439,790.73Zm-4.652-2h1.759l-.853-2.164Z" transform="translate(-1227.174 -784.486)"/><path class="e" d="M1251.782,790.1a2.045,2.045,0,0,1,.273-1.082h.079a1.047,1.047,0,0,0-.009.14,1.481,1.481,0,0,0,.435,1.06,1.575,1.575,0,0,0,1.192.453,1.373,1.373,0,0,0,.919-.281.9.9,0,0,0,.33-.712.711.711,0,0,0-.163-.458,2.376,2.376,0,0,0-.541-.448l-1.53-1.011a1.665,1.665,0,0,1-.853-1.407.872.872,0,0,1,.018-.176,1.57,1.57,0,0,1,.541-1.116,1.926,1.926,0,0,1,1.306-.422,10.015,10.015,0,0,1,1.2.088h.554l-.115,1.293h-.088a.9.9,0,0,0-.339-.734,1.379,1.379,0,0,0-.9-.277,1.147,1.147,0,0,0-.994.422.658.658,0,0,0-.158.4.687.687,0,0,0,.079.343,1.53,1.53,0,0,0,.536.493l1.68,1.091a1.563,1.563,0,0,1,.792,1.354,1.7,1.7,0,0,1-.638,1.429,2.679,2.679,0,0,1-1.693.5,3.984,3.984,0,0,1-1.1-.145,1.65,1.65,0,0,1-.743-.391A1.173,1.173,0,0,1,1251.782,790.1Z" transform="translate(-1240.271 -784.586)"/><path class="e" d="M1266.412,790.1a2.044,2.044,0,0,1,.272-1.082h.079a1.133,1.133,0,0,0-.009.14,1.482,1.482,0,0,0,.435,1.06,1.575,1.575,0,0,0,1.192.453,1.372,1.372,0,0,0,.919-.281.9.9,0,0,0,.33-.712.711.711,0,0,0-.163-.458,2.359,2.359,0,0,0-.541-.448l-1.53-1.011a1.665,1.665,0,0,1-.853-1.407.88.88,0,0,1,.018-.176,1.57,1.57,0,0,1,.541-1.116,1.925,1.925,0,0,1,1.306-.422,10.012,10.012,0,0,1,1.2.088h.554l-.114,1.293h-.088a.9.9,0,0,0-.339-.734,1.378,1.378,0,0,0-.9-.277,1.147,1.147,0,0,0-.994.422.656.656,0,0,0-.158.4.69.69,0,0,0,.079.343,1.535,1.535,0,0,0,.537.493l1.68,1.091a1.562,1.562,0,0,1,.792,1.354,1.7,1.7,0,0,1-.638,1.429,2.679,2.679,0,0,1-1.693.5,3.982,3.982,0,0,1-1.1-.145,1.651,1.651,0,0,1-.743-.391A1.168,1.168,0,0,1,1266.412,790.1Z" transform="translate(-1249.818 -784.586)"/></g><g transform="translate(0 54.246)"><path class="b" d="M1234.7,829.032l-14.457-5.116-14.457,5.116-.281-.82L1220.241,823l14.738,5.215Z" transform="translate(-1205.503 -822.996)"/></g></svg>