<svg class="my-block-svg" xmlns="http://www.w3.org/2000/svg" width="24" height="16" viewBox="0 0 24 16">
  <defs>
    <style>
      .my-block-a {
        fill: none;
        stroke-linecap: round;
      }

      .my-block-b {
        stroke: none;
      }

      .my-block-c {
        fill: red;
      }
    </style>
  </defs>
  <g class="my-block-a">
    <path class="my-block-b" d="M4,0H20a4,4,0,0,1,4,4v8a4,4,0,0,1-4,4H4a4,4,0,0,1-4-4V4A4,4,0,0,1,4,0Z" />
    <path class="my-block-c"
      d="M 4 2 C 2.897199630737305 2 2 2.897199630737305 2 4 L 2 12 C 2 13.1028003692627 2.897199630737305 14 4 14 L 20 14 C 21.1028003692627 14 22 13.1028003692627 22 12 L 22 4 C 22 2.897199630737305 21.1028003692627 2 20 2 L 4 2 M 4 0 L 20 0 C 22.20914077758789 0 24 1.790860176086426 24 4 L 24 12 C 24 14.20913982391357 22.20914077758789 16 20 16 L 4 16 C 1.790859222412109 16 0 14.20913982391357 0 12 L 0 4 C 0 1.790860176086426 1.790859222412109 0 4 0 Z" />
  </g>
</svg>